<?xml version="1.0" encoding="UTF-8"?><svg xmlns="http://www.w3.org/2000/svg" xmlns:xlink="http://www.w3.org/1999/xlink" stroke-dasharray="none" shape-rendering="auto" font-family="'Dialog'" width="1048" text-rendering="auto" fill-opacity="1" contentScriptType="text/ecmascript" color-interpolation="auto" color-rendering="auto" preserveAspectRatio="xMidYMid meet" font-size="12" fill="black" stroke="black" image-rendering="auto" stroke-miterlimit="10" zoomAndPan="magnify" version="1.0" stroke-linecap="square" stroke-linejoin="miter" contentStyleType="text/css" font-style="normal" height="444" stroke-width="1" stroke-dashoffset="0" font-weight="normal" stroke-opacity="1">
<!--Generated by the Batik Graphics2D SVG Generator-->
<defs id="genericDefs"/>
<g>
<defs id="defs1">
<clipPath clipPathUnits="userSpaceOnUse" id="clipPath1">
<path d="M34 19 L1014 19 L1014 425 L34 425 L34 19 Z"/>
</clipPath>
<clipPath clipPathUnits="userSpaceOnUse" id="clipPath2">
<path d="M-1 -1 L1049 -1 L1049 445 L-1 445 L-1 -1 Z"/>
</clipPath>
</defs>
<g font-size="13" fill="white" text-rendering="geometricPrecision" stroke-linejoin="round" stroke="white" stroke-width="0" stroke-miterlimit="0">
<rect x="35" y="20" clip-path="url(#clipPath1)" width="978" height="404" stroke="none"/>
</g>
<g stroke-linecap="butt" font-size="13" fill="rgb(204,204,204)" text-rendering="geometricPrecision" stroke-dasharray="3,3" stroke="rgb(204,204,204)">
<line clip-path="url(#clipPath1)" fill="none" x1="35" x2="35" y1="20" y2="424"/>
<line clip-path="url(#clipPath1)" fill="none" x1="131" x2="131" y1="20" y2="424"/>
<line clip-path="url(#clipPath1)" fill="none" x1="228" x2="228" y1="20" y2="424"/>
<line clip-path="url(#clipPath1)" fill="none" x1="324" x2="324" y1="20" y2="424"/>
<line clip-path="url(#clipPath1)" fill="none" x1="421" x2="421" y1="20" y2="424"/>
<line clip-path="url(#clipPath1)" fill="none" x1="517" x2="517" y1="20" y2="424"/>
<line clip-path="url(#clipPath1)" fill="none" x1="614" x2="614" y1="20" y2="424"/>
<line clip-path="url(#clipPath1)" fill="none" x1="710" x2="710" y1="20" y2="424"/>
<line clip-path="url(#clipPath1)" fill="none" x1="807" x2="807" y1="20" y2="424"/>
<line clip-path="url(#clipPath1)" fill="none" x1="903" x2="903" y1="20" y2="424"/>
<line clip-path="url(#clipPath1)" fill="none" x1="1000" x2="1000" y1="20" y2="424"/>
<line clip-path="url(#clipPath1)" fill="none" x1="35" x2="1013" y1="424" y2="424"/>
<line clip-path="url(#clipPath1)" fill="none" x1="35" x2="1013" y1="373" y2="373"/>
<line clip-path="url(#clipPath1)" fill="none" x1="35" x2="1013" y1="323" y2="323"/>
<line clip-path="url(#clipPath1)" fill="none" x1="35" x2="1013" y1="272" y2="272"/>
<line clip-path="url(#clipPath1)" fill="none" x1="35" x2="1013" y1="222" y2="222"/>
<line clip-path="url(#clipPath1)" fill="none" x1="35" x2="1013" y1="171" y2="171"/>
<line clip-path="url(#clipPath1)" fill="none" x1="35" x2="1013" y1="121" y2="121"/>
<line clip-path="url(#clipPath1)" fill="none" x1="35" x2="1013" y1="70" y2="70"/>
<rect x="998" y="419" clip-path="url(#clipPath1)" fill="rgb(0,0,139)" width="5" height="5" stroke="none"/>
</g>
<g stroke-linecap="butt" font-size="13" fill="rgb(0,0,139)" text-rendering="geometricPrecision" shape-rendering="crispEdges" stroke="rgb(0,0,139)">
<line clip-path="url(#clipPath1)" fill="none" x1="1000" x2="1000" y1="421" y2="418"/>
<rect x="998" y="416" clip-path="url(#clipPath1)" width="5" shape-rendering="auto" height="5" stroke="none"/>
<line clip-path="url(#clipPath1)" fill="none" x1="1000" x2="1000" y1="418" y2="415"/>
<rect x="998" y="413" clip-path="url(#clipPath1)" width="5" shape-rendering="auto" height="5" stroke="none"/>
<line clip-path="url(#clipPath1)" fill="none" x1="1000" x2="1000" y1="415" y2="413"/>
<rect x="998" y="411" clip-path="url(#clipPath1)" width="5" shape-rendering="auto" height="5" stroke="none"/>
<line clip-path="url(#clipPath1)" fill="none" x1="1000" x2="1000" y1="413" y2="410"/>
<rect x="998" y="408" clip-path="url(#clipPath1)" width="5" shape-rendering="auto" height="5" stroke="none"/>
<line clip-path="url(#clipPath1)" fill="none" x1="1000" x2="1000" y1="410" y2="407"/>
<rect x="998" y="405" clip-path="url(#clipPath1)" width="5" shape-rendering="auto" height="5" stroke="none"/>
<line clip-path="url(#clipPath1)" fill="none" x1="1000" x2="1000" y1="407" y2="405"/>
<rect x="998" y="403" clip-path="url(#clipPath1)" width="5" shape-rendering="auto" height="5" stroke="none"/>
<line clip-path="url(#clipPath1)" fill="none" x1="1000" x2="1000" y1="405" y2="402"/>
<rect x="998" y="400" clip-path="url(#clipPath1)" width="5" shape-rendering="auto" height="5" stroke="none"/>
<line clip-path="url(#clipPath1)" fill="none" x1="1000" x2="1000" y1="402" y2="399"/>
<rect x="998" y="397" clip-path="url(#clipPath1)" width="5" shape-rendering="auto" height="5" stroke="none"/>
<line clip-path="url(#clipPath1)" fill="none" x1="1000" x2="1000" y1="399" y2="396"/>
<rect x="998" y="394" clip-path="url(#clipPath1)" width="5" shape-rendering="auto" height="5" stroke="none"/>
<line clip-path="url(#clipPath1)" fill="none" x1="1000" x2="1000" y1="396" y2="394"/>
<rect x="998" y="392" clip-path="url(#clipPath1)" width="5" shape-rendering="auto" height="5" stroke="none"/>
<line clip-path="url(#clipPath1)" fill="none" x1="1000" x2="1000" y1="394" y2="391"/>
<rect x="998" y="389" clip-path="url(#clipPath1)" width="5" shape-rendering="auto" height="5" stroke="none"/>
<line clip-path="url(#clipPath1)" fill="none" x1="1000" x2="1000" y1="391" y2="388"/>
<rect x="998" y="386" clip-path="url(#clipPath1)" width="5" shape-rendering="auto" height="5" stroke="none"/>
<line clip-path="url(#clipPath1)" fill="none" x1="1000" x2="1000" y1="388" y2="386"/>
<rect x="998" y="384" clip-path="url(#clipPath1)" width="5" shape-rendering="auto" height="5" stroke="none"/>
<line clip-path="url(#clipPath1)" fill="none" x1="1000" x2="1000" y1="386" y2="383"/>
<rect x="998" y="381" clip-path="url(#clipPath1)" width="5" shape-rendering="auto" height="5" stroke="none"/>
<line clip-path="url(#clipPath1)" fill="none" x1="1000" x2="1000" y1="383" y2="380"/>
<rect x="998" y="378" clip-path="url(#clipPath1)" width="5" shape-rendering="auto" height="5" stroke="none"/>
<line clip-path="url(#clipPath1)" fill="none" x1="1000" x2="1000" y1="380" y2="377"/>
<rect x="998" y="375" clip-path="url(#clipPath1)" width="5" shape-rendering="auto" height="5" stroke="none"/>
<line clip-path="url(#clipPath1)" fill="none" x1="1000" x2="1000" y1="377" y2="375"/>
<rect x="998" y="373" clip-path="url(#clipPath1)" width="5" shape-rendering="auto" height="5" stroke="none"/>
<line clip-path="url(#clipPath1)" fill="none" x1="1000" x2="1000" y1="375" y2="372"/>
<rect x="998" y="370" clip-path="url(#clipPath1)" width="5" shape-rendering="auto" height="5" stroke="none"/>
<line clip-path="url(#clipPath1)" fill="none" x1="1000" x2="1000" y1="372" y2="369"/>
<rect x="998" y="367" clip-path="url(#clipPath1)" width="5" shape-rendering="auto" height="5" stroke="none"/>
<line clip-path="url(#clipPath1)" fill="none" x1="1000" x2="1000" y1="369" y2="367"/>
<rect x="998" y="365" clip-path="url(#clipPath1)" width="5" shape-rendering="auto" height="5" stroke="none"/>
<line clip-path="url(#clipPath1)" fill="none" x1="1000" x2="1000" y1="367" y2="364"/>
<rect x="998" y="362" clip-path="url(#clipPath1)" width="5" shape-rendering="auto" height="5" stroke="none"/>
<line clip-path="url(#clipPath1)" fill="none" x1="1000" x2="1000" y1="364" y2="361"/>
<rect x="998" y="359" clip-path="url(#clipPath1)" width="5" shape-rendering="auto" height="5" stroke="none"/>
<line clip-path="url(#clipPath1)" fill="none" x1="1000" x2="1000" y1="361" y2="359"/>
<rect x="998" y="357" clip-path="url(#clipPath1)" width="5" shape-rendering="auto" height="5" stroke="none"/>
<line clip-path="url(#clipPath1)" fill="none" x1="1000" x2="1000" y1="359" y2="356"/>
<rect x="998" y="354" clip-path="url(#clipPath1)" width="5" shape-rendering="auto" height="5" stroke="none"/>
<line clip-path="url(#clipPath1)" fill="none" x1="1000" x2="1000" y1="356" y2="353"/>
<rect x="998" y="351" clip-path="url(#clipPath1)" width="5" shape-rendering="auto" height="5" stroke="none"/>
<line clip-path="url(#clipPath1)" fill="none" x1="1000" x2="1000" y1="353" y2="350"/>
<rect x="998" y="348" clip-path="url(#clipPath1)" width="5" shape-rendering="auto" height="5" stroke="none"/>
<line clip-path="url(#clipPath1)" fill="none" x1="1000" x2="1000" y1="350" y2="348"/>
<rect x="998" y="346" clip-path="url(#clipPath1)" width="5" shape-rendering="auto" height="5" stroke="none"/>
<line clip-path="url(#clipPath1)" fill="none" x1="1000" x2="1000" y1="348" y2="345"/>
<rect x="998" y="343" clip-path="url(#clipPath1)" width="5" shape-rendering="auto" height="5" stroke="none"/>
<line clip-path="url(#clipPath1)" fill="none" x1="1000" x2="1000" y1="345" y2="342"/>
<rect x="998" y="340" clip-path="url(#clipPath1)" width="5" shape-rendering="auto" height="5" stroke="none"/>
<line clip-path="url(#clipPath1)" fill="none" x1="1000" x2="1000" y1="342" y2="340"/>
<rect x="998" y="338" clip-path="url(#clipPath1)" width="5" shape-rendering="auto" height="5" stroke="none"/>
<line clip-path="url(#clipPath1)" fill="none" x1="1000" x2="1000" y1="340" y2="337"/>
<rect x="998" y="335" clip-path="url(#clipPath1)" width="5" shape-rendering="auto" height="5" stroke="none"/>
<line clip-path="url(#clipPath1)" fill="none" x1="1000" x2="1000" y1="337" y2="334"/>
<rect x="998" y="332" clip-path="url(#clipPath1)" width="5" shape-rendering="auto" height="5" stroke="none"/>
<line clip-path="url(#clipPath1)" fill="none" x1="1000" x2="1000" y1="334" y2="331"/>
<rect x="998" y="329" clip-path="url(#clipPath1)" width="5" shape-rendering="auto" height="5" stroke="none"/>
<line clip-path="url(#clipPath1)" fill="none" x1="1000" x2="1000" y1="331" y2="329"/>
<rect x="998" y="327" clip-path="url(#clipPath1)" width="5" shape-rendering="auto" height="5" stroke="none"/>
<line clip-path="url(#clipPath1)" fill="none" x1="1000" x2="1000" y1="329" y2="326"/>
<rect x="998" y="324" clip-path="url(#clipPath1)" width="5" shape-rendering="auto" height="5" stroke="none"/>
<line clip-path="url(#clipPath1)" fill="none" x1="1000" x2="1000" y1="326" y2="323"/>
<rect x="998" y="321" clip-path="url(#clipPath1)" width="5" shape-rendering="auto" height="5" stroke="none"/>
<line clip-path="url(#clipPath1)" fill="none" x1="1000" x2="1000" y1="323" y2="321"/>
<rect x="998" y="319" clip-path="url(#clipPath1)" width="5" shape-rendering="auto" height="5" stroke="none"/>
<line clip-path="url(#clipPath1)" fill="none" x1="1000" x2="1000" y1="321" y2="318"/>
<rect x="998" y="316" clip-path="url(#clipPath1)" width="5" shape-rendering="auto" height="5" stroke="none"/>
<line clip-path="url(#clipPath1)" fill="none" x1="1000" x2="1000" y1="318" y2="315"/>
<rect x="998" y="313" clip-path="url(#clipPath1)" width="5" shape-rendering="auto" height="5" stroke="none"/>
<line clip-path="url(#clipPath1)" fill="none" x1="1000" x2="1000" y1="315" y2="313"/>
<rect x="998" y="311" clip-path="url(#clipPath1)" width="5" shape-rendering="auto" height="5" stroke="none"/>
<line clip-path="url(#clipPath1)" fill="none" x1="1000" x2="1000" y1="313" y2="310"/>
<rect x="998" y="308" clip-path="url(#clipPath1)" width="5" shape-rendering="auto" height="5" stroke="none"/>
<line clip-path="url(#clipPath1)" fill="none" x1="1000" x2="1000" y1="310" y2="307"/>
<rect x="998" y="305" clip-path="url(#clipPath1)" width="5" shape-rendering="auto" height="5" stroke="none"/>
<line clip-path="url(#clipPath1)" fill="none" x1="1000" x2="1000" y1="307" y2="304"/>
<rect x="998" y="302" clip-path="url(#clipPath1)" width="5" shape-rendering="auto" height="5" stroke="none"/>
<line clip-path="url(#clipPath1)" fill="none" x1="1000" x2="1000" y1="304" y2="302"/>
<rect x="998" y="300" clip-path="url(#clipPath1)" width="5" shape-rendering="auto" height="5" stroke="none"/>
<line clip-path="url(#clipPath1)" fill="none" x1="1000" x2="1000" y1="302" y2="299"/>
<rect x="998" y="297" clip-path="url(#clipPath1)" width="5" shape-rendering="auto" height="5" stroke="none"/>
<line clip-path="url(#clipPath1)" fill="none" x1="1000" x2="1000" y1="299" y2="296"/>
<rect x="998" y="294" clip-path="url(#clipPath1)" width="5" shape-rendering="auto" height="5" stroke="none"/>
<line clip-path="url(#clipPath1)" fill="none" x1="1000" x2="1000" y1="296" y2="294"/>
<rect x="998" y="292" clip-path="url(#clipPath1)" width="5" shape-rendering="auto" height="5" stroke="none"/>
<line clip-path="url(#clipPath1)" fill="none" x1="1000" x2="1000" y1="294" y2="291"/>
<rect x="998" y="289" clip-path="url(#clipPath1)" width="5" shape-rendering="auto" height="5" stroke="none"/>
<line clip-path="url(#clipPath1)" fill="none" x1="1000" x2="1000" y1="291" y2="288"/>
<rect x="998" y="286" clip-path="url(#clipPath1)" width="5" shape-rendering="auto" height="5" stroke="none"/>
<line clip-path="url(#clipPath1)" fill="none" x1="1000" x2="1000" y1="288" y2="285"/>
<rect x="998" y="283" clip-path="url(#clipPath1)" width="5" shape-rendering="auto" height="5" stroke="none"/>
<line clip-path="url(#clipPath1)" fill="none" x1="1000" x2="1000" y1="285" y2="283"/>
<rect x="998" y="281" clip-path="url(#clipPath1)" width="5" shape-rendering="auto" height="5" stroke="none"/>
<line clip-path="url(#clipPath1)" fill="none" x1="1000" x2="1000" y1="283" y2="280"/>
<rect x="998" y="278" clip-path="url(#clipPath1)" width="5" shape-rendering="auto" height="5" stroke="none"/>
<line clip-path="url(#clipPath1)" fill="none" x1="1000" x2="1000" y1="280" y2="277"/>
<rect x="998" y="275" clip-path="url(#clipPath1)" width="5" shape-rendering="auto" height="5" stroke="none"/>
<line clip-path="url(#clipPath1)" fill="none" x1="1000" x2="1000" y1="277" y2="275"/>
<rect x="998" y="273" clip-path="url(#clipPath1)" width="5" shape-rendering="auto" height="5" stroke="none"/>
<line clip-path="url(#clipPath1)" fill="none" x1="1000" x2="1000" y1="275" y2="272"/>
<rect x="998" y="270" clip-path="url(#clipPath1)" width="5" shape-rendering="auto" height="5" stroke="none"/>
<line clip-path="url(#clipPath1)" fill="none" x1="1000" x2="1000" y1="272" y2="269"/>
<rect x="998" y="267" clip-path="url(#clipPath1)" width="5" shape-rendering="auto" height="5" stroke="none"/>
<line clip-path="url(#clipPath1)" fill="none" x1="1000" x2="1000" y1="269" y2="267"/>
<rect x="998" y="265" clip-path="url(#clipPath1)" width="5" shape-rendering="auto" height="5" stroke="none"/>
<line clip-path="url(#clipPath1)" fill="none" x1="1000" x2="1000" y1="267" y2="264"/>
<rect x="998" y="262" clip-path="url(#clipPath1)" width="5" shape-rendering="auto" height="5" stroke="none"/>
<line clip-path="url(#clipPath1)" fill="none" x1="1000" x2="1000" y1="264" y2="261"/>
<rect x="998" y="259" clip-path="url(#clipPath1)" width="5" shape-rendering="auto" height="5" stroke="none"/>
<line clip-path="url(#clipPath1)" fill="none" x1="1000" x2="1000" y1="261" y2="258"/>
<rect x="998" y="256" clip-path="url(#clipPath1)" width="5" shape-rendering="auto" height="5" stroke="none"/>
<line clip-path="url(#clipPath1)" fill="none" x1="1000" x2="1000" y1="258" y2="256"/>
<rect x="998" y="254" clip-path="url(#clipPath1)" width="5" shape-rendering="auto" height="5" stroke="none"/>
<line clip-path="url(#clipPath1)" fill="none" x1="1000" x2="1000" y1="256" y2="253"/>
<rect x="998" y="251" clip-path="url(#clipPath1)" width="5" shape-rendering="auto" height="5" stroke="none"/>
<line clip-path="url(#clipPath1)" fill="none" x1="1000" x2="1000" y1="253" y2="250"/>
<rect x="998" y="248" clip-path="url(#clipPath1)" width="5" shape-rendering="auto" height="5" stroke="none"/>
<line clip-path="url(#clipPath1)" fill="none" x1="1000" x2="1000" y1="250" y2="248"/>
<rect x="998" y="246" clip-path="url(#clipPath1)" width="5" shape-rendering="auto" height="5" stroke="none"/>
<line clip-path="url(#clipPath1)" fill="none" x1="1000" x2="1000" y1="248" y2="245"/>
<rect x="998" y="243" clip-path="url(#clipPath1)" width="5" shape-rendering="auto" height="5" stroke="none"/>
<line clip-path="url(#clipPath1)" fill="none" x1="1000" x2="1000" y1="245" y2="242"/>
<rect x="998" y="240" clip-path="url(#clipPath1)" width="5" shape-rendering="auto" height="5" stroke="none"/>
<line clip-path="url(#clipPath1)" fill="none" x1="1000" x2="1000" y1="242" y2="239"/>
<rect x="998" y="237" clip-path="url(#clipPath1)" width="5" shape-rendering="auto" height="5" stroke="none"/>
<line clip-path="url(#clipPath1)" fill="none" x1="1000" x2="1000" y1="239" y2="237"/>
<rect x="998" y="235" clip-path="url(#clipPath1)" width="5" shape-rendering="auto" height="5" stroke="none"/>
<line clip-path="url(#clipPath1)" fill="none" x1="1000" x2="1000" y1="237" y2="234"/>
<rect x="998" y="232" clip-path="url(#clipPath1)" width="5" shape-rendering="auto" height="5" stroke="none"/>
<line clip-path="url(#clipPath1)" fill="none" x1="1000" x2="1000" y1="234" y2="231"/>
<rect x="998" y="229" clip-path="url(#clipPath1)" width="5" shape-rendering="auto" height="5" stroke="none"/>
<line clip-path="url(#clipPath1)" fill="none" x1="1000" x2="1000" y1="231" y2="229"/>
<rect x="998" y="227" clip-path="url(#clipPath1)" width="5" shape-rendering="auto" height="5" stroke="none"/>
<line clip-path="url(#clipPath1)" fill="none" x1="1000" x2="1000" y1="229" y2="226"/>
<rect x="998" y="224" clip-path="url(#clipPath1)" width="5" shape-rendering="auto" height="5" stroke="none"/>
<line clip-path="url(#clipPath1)" fill="none" x1="1000" x2="1000" y1="226" y2="223"/>
<rect x="998" y="221" clip-path="url(#clipPath1)" width="5" shape-rendering="auto" height="5" stroke="none"/>
<line clip-path="url(#clipPath1)" fill="none" x1="1000" x2="1000" y1="223" y2="220"/>
<rect x="998" y="218" clip-path="url(#clipPath1)" width="5" shape-rendering="auto" height="5" stroke="none"/>
<line clip-path="url(#clipPath1)" fill="none" x1="1000" x2="1000" y1="220" y2="218"/>
<rect x="998" y="216" clip-path="url(#clipPath1)" width="5" shape-rendering="auto" height="5" stroke="none"/>
<line clip-path="url(#clipPath1)" fill="none" x1="1000" x2="1000" y1="218" y2="215"/>
<rect x="998" y="213" clip-path="url(#clipPath1)" width="5" shape-rendering="auto" height="5" stroke="none"/>
<line clip-path="url(#clipPath1)" fill="none" x1="1000" x2="1000" y1="215" y2="212"/>
<rect x="998" y="210" clip-path="url(#clipPath1)" width="5" shape-rendering="auto" height="5" stroke="none"/>
<line clip-path="url(#clipPath1)" fill="none" x1="1000" x2="1000" y1="212" y2="210"/>
<rect x="998" y="208" clip-path="url(#clipPath1)" width="5" shape-rendering="auto" height="5" stroke="none"/>
<line clip-path="url(#clipPath1)" fill="none" x1="1000" x2="1000" y1="210" y2="207"/>
<rect x="998" y="205" clip-path="url(#clipPath1)" width="5" shape-rendering="auto" height="5" stroke="none"/>
<line clip-path="url(#clipPath1)" fill="none" x1="1000" x2="1000" y1="207" y2="204"/>
<rect x="998" y="202" clip-path="url(#clipPath1)" width="5" shape-rendering="auto" height="5" stroke="none"/>
<line clip-path="url(#clipPath1)" fill="none" x1="1000" x2="1000" y1="204" y2="202"/>
<rect x="998" y="200" clip-path="url(#clipPath1)" width="5" shape-rendering="auto" height="5" stroke="none"/>
<line clip-path="url(#clipPath1)" fill="none" x1="1000" x2="1000" y1="202" y2="199"/>
<rect x="998" y="197" clip-path="url(#clipPath1)" width="5" shape-rendering="auto" height="5" stroke="none"/>
<line clip-path="url(#clipPath1)" fill="none" x1="1000" x2="1000" y1="199" y2="196"/>
<rect x="998" y="194" clip-path="url(#clipPath1)" width="5" shape-rendering="auto" height="5" stroke="none"/>
<line clip-path="url(#clipPath1)" fill="none" x1="1000" x2="1000" y1="196" y2="193"/>
<rect x="998" y="191" clip-path="url(#clipPath1)" width="5" shape-rendering="auto" height="5" stroke="none"/>
<line clip-path="url(#clipPath1)" fill="none" x1="1000" x2="1000" y1="193" y2="191"/>
<rect x="998" y="189" clip-path="url(#clipPath1)" width="5" shape-rendering="auto" height="5" stroke="none"/>
<line clip-path="url(#clipPath1)" fill="none" x1="1000" x2="1000" y1="191" y2="188"/>
<rect x="998" y="186" clip-path="url(#clipPath1)" width="5" shape-rendering="auto" height="5" stroke="none"/>
<line clip-path="url(#clipPath1)" fill="none" x1="1000" x2="1000" y1="188" y2="185"/>
<rect x="998" y="183" clip-path="url(#clipPath1)" width="5" shape-rendering="auto" height="5" stroke="none"/>
<line clip-path="url(#clipPath1)" fill="none" x1="1000" x2="1000" y1="185" y2="183"/>
<rect x="998" y="181" clip-path="url(#clipPath1)" width="5" shape-rendering="auto" height="5" stroke="none"/>
<line clip-path="url(#clipPath1)" fill="none" x1="1000" x2="1000" y1="183" y2="180"/>
<rect x="998" y="178" clip-path="url(#clipPath1)" width="5" shape-rendering="auto" height="5" stroke="none"/>
<line clip-path="url(#clipPath1)" fill="none" x1="1000" x2="1000" y1="180" y2="177"/>
<rect x="998" y="175" clip-path="url(#clipPath1)" width="5" shape-rendering="auto" height="5" stroke="none"/>
<line clip-path="url(#clipPath1)" fill="none" x1="1000" x2="1000" y1="177" y2="174"/>
<rect x="998" y="172" clip-path="url(#clipPath1)" width="5" shape-rendering="auto" height="5" stroke="none"/>
<line clip-path="url(#clipPath1)" fill="none" x1="1000" x2="1000" y1="174" y2="172"/>
<rect x="998" y="170" clip-path="url(#clipPath1)" width="5" shape-rendering="auto" height="5" stroke="none"/>
<line clip-path="url(#clipPath1)" fill="none" x1="1000" x2="1000" y1="172" y2="169"/>
<rect x="998" y="167" clip-path="url(#clipPath1)" width="5" shape-rendering="auto" height="5" stroke="none"/>
<line clip-path="url(#clipPath1)" fill="none" x1="1000" x2="1000" y1="169" y2="166"/>
<rect x="998" y="164" clip-path="url(#clipPath1)" width="5" shape-rendering="auto" height="5" stroke="none"/>
<line clip-path="url(#clipPath1)" fill="none" x1="1000" x2="1000" y1="166" y2="164"/>
<rect x="998" y="162" clip-path="url(#clipPath1)" width="5" shape-rendering="auto" height="5" stroke="none"/>
<line clip-path="url(#clipPath1)" fill="none" x1="1000" x2="1000" y1="164" y2="161"/>
<rect x="998" y="159" clip-path="url(#clipPath1)" width="5" shape-rendering="auto" height="5" stroke="none"/>
<line clip-path="url(#clipPath1)" fill="none" x1="1000" x2="1000" y1="161" y2="158"/>
<rect x="998" y="156" clip-path="url(#clipPath1)" width="5" shape-rendering="auto" height="5" stroke="none"/>
<line clip-path="url(#clipPath1)" fill="none" x1="1000" x2="1000" y1="158" y2="156"/>
<rect x="998" y="154" clip-path="url(#clipPath1)" width="5" shape-rendering="auto" height="5" stroke="none"/>
<line clip-path="url(#clipPath1)" fill="none" x1="1000" x2="1000" y1="156" y2="153"/>
<rect x="998" y="151" clip-path="url(#clipPath1)" width="5" shape-rendering="auto" height="5" stroke="none"/>
<line clip-path="url(#clipPath1)" fill="none" x1="1000" x2="1000" y1="153" y2="150"/>
<rect x="998" y="148" clip-path="url(#clipPath1)" width="5" shape-rendering="auto" height="5" stroke="none"/>
<line clip-path="url(#clipPath1)" fill="none" x1="1000" x2="1000" y1="150" y2="147"/>
<rect x="998" y="145" clip-path="url(#clipPath1)" width="5" shape-rendering="auto" height="5" stroke="none"/>
<line clip-path="url(#clipPath1)" fill="none" x1="1000" x2="1000" y1="147" y2="145"/>
<rect x="998" y="143" clip-path="url(#clipPath1)" width="5" shape-rendering="auto" height="5" stroke="none"/>
<line clip-path="url(#clipPath1)" fill="none" x1="1000" x2="1000" y1="145" y2="142"/>
<rect x="998" y="140" clip-path="url(#clipPath1)" width="5" shape-rendering="auto" height="5" stroke="none"/>
<line clip-path="url(#clipPath1)" fill="none" x1="1000" x2="1000" y1="142" y2="139"/>
<rect x="998" y="137" clip-path="url(#clipPath1)" width="5" shape-rendering="auto" height="5" stroke="none"/>
<line clip-path="url(#clipPath1)" fill="none" x1="1000" x2="1000" y1="139" y2="137"/>
<rect x="998" y="135" clip-path="url(#clipPath1)" width="5" shape-rendering="auto" height="5" stroke="none"/>
<line clip-path="url(#clipPath1)" fill="none" x1="1000" x2="1000" y1="137" y2="134"/>
<rect x="998" y="132" clip-path="url(#clipPath1)" width="5" shape-rendering="auto" height="5" stroke="none"/>
<line clip-path="url(#clipPath1)" fill="none" x1="1000" x2="1000" y1="134" y2="131"/>
<rect x="998" y="129" clip-path="url(#clipPath1)" width="5" shape-rendering="auto" height="5" stroke="none"/>
<line clip-path="url(#clipPath1)" fill="none" x1="1000" x2="1000" y1="131" y2="128"/>
<rect x="998" y="126" clip-path="url(#clipPath1)" width="5" shape-rendering="auto" height="5" stroke="none"/>
<line clip-path="url(#clipPath1)" fill="none" x1="1000" x2="1000" y1="128" y2="126"/>
<rect x="998" y="124" clip-path="url(#clipPath1)" width="5" shape-rendering="auto" height="5" stroke="none"/>
<line clip-path="url(#clipPath1)" fill="none" x1="1000" x2="1000" y1="126" y2="123"/>
<rect x="998" y="121" clip-path="url(#clipPath1)" width="5" shape-rendering="auto" height="5" stroke="none"/>
<line clip-path="url(#clipPath1)" fill="none" x1="1000" x2="1000" y1="123" y2="121"/>
<rect x="998" y="119" clip-path="url(#clipPath1)" width="5" shape-rendering="auto" height="5" stroke="none"/>
<rect x="35" y="20" clip-path="url(#clipPath2)" fill="none" width="978" shape-rendering="auto" height="404" stroke="black"/>
</g>
<g text-rendering="geometricPrecision" font-size="10" font-family="'Arial'" stroke-linecap="butt">
<line clip-path="url(#clipPath2)" fill="none" x1="35" x2="1013" y1="18" y2="18"/>
<line clip-path="url(#clipPath2)" fill="none" x1="35" x2="1013" y1="426" y2="426"/>
<line clip-path="url(#clipPath2)" fill="none" x1="35" x2="35" y1="14" y2="18"/>
<line clip-path="url(#clipPath2)" fill="none" x1="35" x2="35" y1="430" y2="426"/>
<text x="30" font-size="8" y="12" clip-path="url(#clipPath2)" stroke="none" xml:space="preserve">0.0</text>
<text x="30" font-size="8" y="439" clip-path="url(#clipPath2)" stroke="none" xml:space="preserve">0.0</text>
<line clip-path="url(#clipPath2)" fill="none" x1="54" x2="54" y1="16" y2="18"/>
<line clip-path="url(#clipPath2)" fill="none" x1="54" x2="54" y1="428" y2="426"/>
<line clip-path="url(#clipPath2)" fill="none" x1="73" x2="73" y1="16" y2="18"/>
<line clip-path="url(#clipPath2)" fill="none" x1="73" x2="73" y1="428" y2="426"/>
<line clip-path="url(#clipPath2)" fill="none" x1="92" x2="92" y1="16" y2="18"/>
<line clip-path="url(#clipPath2)" fill="none" x1="92" x2="92" y1="428" y2="426"/>
<line clip-path="url(#clipPath2)" fill="none" x1="112" x2="112" y1="16" y2="18"/>
<line clip-path="url(#clipPath2)" fill="none" x1="112" x2="112" y1="428" y2="426"/>
<line clip-path="url(#clipPath2)" fill="none" x1="131" x2="131" y1="14" y2="18"/>
<line clip-path="url(#clipPath2)" fill="none" x1="131" x2="131" y1="430" y2="426"/>
<text x="124" font-size="8" y="12" clip-path="url(#clipPath2)" stroke="none" xml:space="preserve">0.10</text>
<text x="124" font-size="8" y="439" clip-path="url(#clipPath2)" stroke="none" xml:space="preserve">0.10</text>
<line clip-path="url(#clipPath2)" fill="none" x1="150" x2="150" y1="16" y2="18"/>
<line clip-path="url(#clipPath2)" fill="none" x1="150" x2="150" y1="428" y2="426"/>
<line clip-path="url(#clipPath2)" fill="none" x1="170" x2="170" y1="16" y2="18"/>
<line clip-path="url(#clipPath2)" fill="none" x1="170" x2="170" y1="428" y2="426"/>
<line clip-path="url(#clipPath2)" fill="none" x1="189" x2="189" y1="16" y2="18"/>
<line clip-path="url(#clipPath2)" fill="none" x1="189" x2="189" y1="428" y2="426"/>
<line clip-path="url(#clipPath2)" fill="none" x1="208" x2="208" y1="16" y2="18"/>
<line clip-path="url(#clipPath2)" fill="none" x1="208" x2="208" y1="428" y2="426"/>
<line clip-path="url(#clipPath2)" fill="none" x1="228" x2="228" y1="14" y2="18"/>
<line clip-path="url(#clipPath2)" fill="none" x1="228" x2="228" y1="430" y2="426"/>
<text x="221" font-size="8" y="12" clip-path="url(#clipPath2)" stroke="none" xml:space="preserve">0.20</text>
<text x="221" font-size="8" y="439" clip-path="url(#clipPath2)" stroke="none" xml:space="preserve">0.20</text>
<line clip-path="url(#clipPath2)" fill="none" x1="247" x2="247" y1="16" y2="18"/>
<line clip-path="url(#clipPath2)" fill="none" x1="247" x2="247" y1="428" y2="426"/>
<line clip-path="url(#clipPath2)" fill="none" x1="266" x2="266" y1="16" y2="18"/>
<line clip-path="url(#clipPath2)" fill="none" x1="266" x2="266" y1="428" y2="426"/>
<line clip-path="url(#clipPath2)" fill="none" x1="285" x2="285" y1="16" y2="18"/>
<line clip-path="url(#clipPath2)" fill="none" x1="285" x2="285" y1="428" y2="426"/>
<line clip-path="url(#clipPath2)" fill="none" x1="305" x2="305" y1="16" y2="18"/>
<line clip-path="url(#clipPath2)" fill="none" x1="305" x2="305" y1="428" y2="426"/>
<line clip-path="url(#clipPath2)" fill="none" x1="324" x2="324" y1="14" y2="18"/>
<line clip-path="url(#clipPath2)" fill="none" x1="324" x2="324" y1="430" y2="426"/>
<text x="317" font-size="8" y="12" clip-path="url(#clipPath2)" stroke="none" xml:space="preserve">0.30</text>
<text x="317" font-size="8" y="439" clip-path="url(#clipPath2)" stroke="none" xml:space="preserve">0.30</text>
<line clip-path="url(#clipPath2)" fill="none" x1="343" x2="343" y1="16" y2="18"/>
<line clip-path="url(#clipPath2)" fill="none" x1="343" x2="343" y1="428" y2="426"/>
<line clip-path="url(#clipPath2)" fill="none" x1="363" x2="363" y1="16" y2="18"/>
<line clip-path="url(#clipPath2)" fill="none" x1="363" x2="363" y1="428" y2="426"/>
<line clip-path="url(#clipPath2)" fill="none" x1="382" x2="382" y1="16" y2="18"/>
<line clip-path="url(#clipPath2)" fill="none" x1="382" x2="382" y1="428" y2="426"/>
<line clip-path="url(#clipPath2)" fill="none" x1="401" x2="401" y1="16" y2="18"/>
<line clip-path="url(#clipPath2)" fill="none" x1="401" x2="401" y1="428" y2="426"/>
<line clip-path="url(#clipPath2)" fill="none" x1="421" x2="421" y1="14" y2="18"/>
<line clip-path="url(#clipPath2)" fill="none" x1="421" x2="421" y1="430" y2="426"/>
<text x="414" font-size="8" y="12" clip-path="url(#clipPath2)" stroke="none" xml:space="preserve">0.40</text>
<text x="414" font-size="8" y="439" clip-path="url(#clipPath2)" stroke="none" xml:space="preserve">0.40</text>
<line clip-path="url(#clipPath2)" fill="none" x1="440" x2="440" y1="16" y2="18"/>
<line clip-path="url(#clipPath2)" fill="none" x1="440" x2="440" y1="428" y2="426"/>
<line clip-path="url(#clipPath2)" fill="none" x1="459" x2="459" y1="16" y2="18"/>
<line clip-path="url(#clipPath2)" fill="none" x1="459" x2="459" y1="428" y2="426"/>
<line clip-path="url(#clipPath2)" fill="none" x1="479" x2="479" y1="16" y2="18"/>
<line clip-path="url(#clipPath2)" fill="none" x1="479" x2="479" y1="428" y2="426"/>
<line clip-path="url(#clipPath2)" fill="none" x1="498" x2="498" y1="16" y2="18"/>
<line clip-path="url(#clipPath2)" fill="none" x1="498" x2="498" y1="428" y2="426"/>
<line clip-path="url(#clipPath2)" fill="none" x1="517" x2="517" y1="14" y2="18"/>
<line clip-path="url(#clipPath2)" fill="none" x1="517" x2="517" y1="430" y2="426"/>
<text x="510" font-size="8" y="12" clip-path="url(#clipPath2)" stroke="none" xml:space="preserve">0.50</text>
<text x="510" font-size="8" y="439" clip-path="url(#clipPath2)" stroke="none" xml:space="preserve">0.50</text>
<line clip-path="url(#clipPath2)" fill="none" x1="536" x2="536" y1="16" y2="18"/>
<line clip-path="url(#clipPath2)" fill="none" x1="536" x2="536" y1="428" y2="426"/>
<line clip-path="url(#clipPath2)" fill="none" x1="556" x2="556" y1="16" y2="18"/>
<line clip-path="url(#clipPath2)" fill="none" x1="556" x2="556" y1="428" y2="426"/>
<line clip-path="url(#clipPath2)" fill="none" x1="575" x2="575" y1="16" y2="18"/>
<line clip-path="url(#clipPath2)" fill="none" x1="575" x2="575" y1="428" y2="426"/>
<line clip-path="url(#clipPath2)" fill="none" x1="594" x2="594" y1="16" y2="18"/>
<line clip-path="url(#clipPath2)" fill="none" x1="594" x2="594" y1="428" y2="426"/>
<line clip-path="url(#clipPath2)" fill="none" x1="614" x2="614" y1="14" y2="18"/>
<line clip-path="url(#clipPath2)" fill="none" x1="614" x2="614" y1="430" y2="426"/>
<text x="607" font-size="8" y="12" clip-path="url(#clipPath2)" stroke="none" xml:space="preserve">0.60</text>
<text x="607" font-size="8" y="439" clip-path="url(#clipPath2)" stroke="none" xml:space="preserve">0.60</text>
<line clip-path="url(#clipPath2)" fill="none" x1="633" x2="633" y1="16" y2="18"/>
<line clip-path="url(#clipPath2)" fill="none" x1="633" x2="633" y1="428" y2="426"/>
<line clip-path="url(#clipPath2)" fill="none" x1="652" x2="652" y1="16" y2="18"/>
<line clip-path="url(#clipPath2)" fill="none" x1="652" x2="652" y1="428" y2="426"/>
<line clip-path="url(#clipPath2)" fill="none" x1="672" x2="672" y1="16" y2="18"/>
<line clip-path="url(#clipPath2)" fill="none" x1="672" x2="672" y1="428" y2="426"/>
<line clip-path="url(#clipPath2)" fill="none" x1="691" x2="691" y1="16" y2="18"/>
<line clip-path="url(#clipPath2)" fill="none" x1="691" x2="691" y1="428" y2="426"/>
<line clip-path="url(#clipPath2)" fill="none" x1="710" x2="710" y1="14" y2="18"/>
<line clip-path="url(#clipPath2)" fill="none" x1="710" x2="710" y1="430" y2="426"/>
<text x="703" font-size="8" y="12" clip-path="url(#clipPath2)" stroke="none" xml:space="preserve">0.70</text>
<text x="703" font-size="8" y="439" clip-path="url(#clipPath2)" stroke="none" xml:space="preserve">0.70</text>
<line clip-path="url(#clipPath2)" fill="none" x1="730" x2="730" y1="16" y2="18"/>
<line clip-path="url(#clipPath2)" fill="none" x1="730" x2="730" y1="428" y2="426"/>
<line clip-path="url(#clipPath2)" fill="none" x1="749" x2="749" y1="16" y2="18"/>
<line clip-path="url(#clipPath2)" fill="none" x1="749" x2="749" y1="428" y2="426"/>
<line clip-path="url(#clipPath2)" fill="none" x1="768" x2="768" y1="16" y2="18"/>
<line clip-path="url(#clipPath2)" fill="none" x1="768" x2="768" y1="428" y2="426"/>
<line clip-path="url(#clipPath2)" fill="none" x1="787" x2="787" y1="16" y2="18"/>
<line clip-path="url(#clipPath2)" fill="none" x1="787" x2="787" y1="428" y2="426"/>
<line clip-path="url(#clipPath2)" fill="none" x1="807" x2="807" y1="14" y2="18"/>
<line clip-path="url(#clipPath2)" fill="none" x1="807" x2="807" y1="430" y2="426"/>
<text x="800" font-size="8" y="12" clip-path="url(#clipPath2)" stroke="none" xml:space="preserve">0.80</text>
<text x="800" font-size="8" y="439" clip-path="url(#clipPath2)" stroke="none" xml:space="preserve">0.80</text>
<line clip-path="url(#clipPath2)" fill="none" x1="826" x2="826" y1="16" y2="18"/>
<line clip-path="url(#clipPath2)" fill="none" x1="826" x2="826" y1="428" y2="426"/>
<line clip-path="url(#clipPath2)" fill="none" x1="845" x2="845" y1="16" y2="18"/>
<line clip-path="url(#clipPath2)" fill="none" x1="845" x2="845" y1="428" y2="426"/>
<line clip-path="url(#clipPath2)" fill="none" x1="865" x2="865" y1="16" y2="18"/>
<line clip-path="url(#clipPath2)" fill="none" x1="865" x2="865" y1="428" y2="426"/>
<line clip-path="url(#clipPath2)" fill="none" x1="884" x2="884" y1="16" y2="18"/>
<line clip-path="url(#clipPath2)" fill="none" x1="884" x2="884" y1="428" y2="426"/>
<line clip-path="url(#clipPath2)" fill="none" x1="903" x2="903" y1="14" y2="18"/>
<line clip-path="url(#clipPath2)" fill="none" x1="903" x2="903" y1="430" y2="426"/>
<text x="896" font-size="8" y="12" clip-path="url(#clipPath2)" stroke="none" xml:space="preserve">0.90</text>
<text x="896" font-size="8" y="439" clip-path="url(#clipPath2)" stroke="none" xml:space="preserve">0.90</text>
<line clip-path="url(#clipPath2)" fill="none" x1="923" x2="923" y1="16" y2="18"/>
<line clip-path="url(#clipPath2)" fill="none" x1="923" x2="923" y1="428" y2="426"/>
<line clip-path="url(#clipPath2)" fill="none" x1="942" x2="942" y1="16" y2="18"/>
<line clip-path="url(#clipPath2)" fill="none" x1="942" x2="942" y1="428" y2="426"/>
<line clip-path="url(#clipPath2)" fill="none" x1="961" x2="961" y1="16" y2="18"/>
<line clip-path="url(#clipPath2)" fill="none" x1="961" x2="961" y1="428" y2="426"/>
<line clip-path="url(#clipPath2)" fill="none" x1="981" x2="981" y1="16" y2="18"/>
<line clip-path="url(#clipPath2)" fill="none" x1="981" x2="981" y1="428" y2="426"/>
<line clip-path="url(#clipPath2)" fill="none" x1="1000" x2="1000" y1="14" y2="18"/>
<line clip-path="url(#clipPath2)" fill="none" x1="1000" x2="1000" y1="430" y2="426"/>
<text x="993" font-size="8" y="12" clip-path="url(#clipPath2)" stroke="none" xml:space="preserve">1.00</text>
<text x="993" font-size="8" y="439" clip-path="url(#clipPath2)" stroke="none" xml:space="preserve">1.00</text>
<line clip-path="url(#clipPath2)" fill="none" x1="33" x2="33" y1="20" y2="424"/>
<line clip-path="url(#clipPath2)" fill="none" x1="1015" x2="1015" y1="20" y2="424"/>
<line clip-path="url(#clipPath2)" fill="none" x1="29" x2="33" y1="424" y2="424"/>
<line clip-path="url(#clipPath2)" fill="none" x1="1019" x2="1015" y1="424" y2="424"/>
<text x="24" font-size="8" y="428" clip-path="url(#clipPath2)" stroke="none" xml:space="preserve">0</text>
<text x="1022" font-size="8" y="428" clip-path="url(#clipPath2)" stroke="none" xml:space="preserve">0</text>
<line clip-path="url(#clipPath2)" fill="none" x1="31" x2="33" y1="413" y2="413"/>
<line clip-path="url(#clipPath2)" fill="none" x1="1017" x2="1015" y1="413" y2="413"/>
<line clip-path="url(#clipPath2)" fill="none" x1="31" x2="33" y1="403" y2="403"/>
<line clip-path="url(#clipPath2)" fill="none" x1="1017" x2="1015" y1="403" y2="403"/>
<line clip-path="url(#clipPath2)" fill="none" x1="31" x2="33" y1="393" y2="393"/>
<line clip-path="url(#clipPath2)" fill="none" x1="1017" x2="1015" y1="393" y2="393"/>
<line clip-path="url(#clipPath2)" fill="none" x1="31" x2="33" y1="383" y2="383"/>
<line clip-path="url(#clipPath2)" fill="none" x1="1017" x2="1015" y1="383" y2="383"/>
<line clip-path="url(#clipPath2)" fill="none" x1="29" x2="33" y1="373" y2="373"/>
<line clip-path="url(#clipPath2)" fill="none" x1="1019" x2="1015" y1="373" y2="373"/>
<text x="8" font-size="8" y="377" clip-path="url(#clipPath2)" stroke="none" xml:space="preserve">10000</text>
<text x="1022" font-size="8" y="377" clip-path="url(#clipPath2)" stroke="none" xml:space="preserve">10000</text>
<line clip-path="url(#clipPath2)" fill="none" x1="31" x2="33" y1="363" y2="363"/>
<line clip-path="url(#clipPath2)" fill="none" x1="1017" x2="1015" y1="363" y2="363"/>
<line clip-path="url(#clipPath2)" fill="none" x1="31" x2="33" y1="353" y2="353"/>
<line clip-path="url(#clipPath2)" fill="none" x1="1017" x2="1015" y1="353" y2="353"/>
<line clip-path="url(#clipPath2)" fill="none" x1="31" x2="33" y1="343" y2="343"/>
<line clip-path="url(#clipPath2)" fill="none" x1="1017" x2="1015" y1="343" y2="343"/>
<line clip-path="url(#clipPath2)" fill="none" x1="31" x2="33" y1="333" y2="333"/>
<line clip-path="url(#clipPath2)" fill="none" x1="1017" x2="1015" y1="333" y2="333"/>
<line clip-path="url(#clipPath2)" fill="none" x1="29" x2="33" y1="323" y2="323"/>
<line clip-path="url(#clipPath2)" fill="none" x1="1019" x2="1015" y1="323" y2="323"/>
<text x="8" font-size="8" y="327" clip-path="url(#clipPath2)" stroke="none" xml:space="preserve">20000</text>
<text x="1022" font-size="8" y="327" clip-path="url(#clipPath2)" stroke="none" xml:space="preserve">20000</text>
<line clip-path="url(#clipPath2)" fill="none" x1="31" x2="33" y1="312" y2="312"/>
<line clip-path="url(#clipPath2)" fill="none" x1="1017" x2="1015" y1="312" y2="312"/>
<line clip-path="url(#clipPath2)" fill="none" x1="31" x2="33" y1="302" y2="302"/>
<line clip-path="url(#clipPath2)" fill="none" x1="1017" x2="1015" y1="302" y2="302"/>
<line clip-path="url(#clipPath2)" fill="none" x1="31" x2="33" y1="292" y2="292"/>
<line clip-path="url(#clipPath2)" fill="none" x1="1017" x2="1015" y1="292" y2="292"/>
<line clip-path="url(#clipPath2)" fill="none" x1="31" x2="33" y1="282" y2="282"/>
<line clip-path="url(#clipPath2)" fill="none" x1="1017" x2="1015" y1="282" y2="282"/>
<line clip-path="url(#clipPath2)" fill="none" x1="29" x2="33" y1="272" y2="272"/>
<line clip-path="url(#clipPath2)" fill="none" x1="1019" x2="1015" y1="272" y2="272"/>
<text x="8" font-size="8" y="276" clip-path="url(#clipPath2)" stroke="none" xml:space="preserve">30000</text>
<text x="1022" font-size="8" y="276" clip-path="url(#clipPath2)" stroke="none" xml:space="preserve">30000</text>
<line clip-path="url(#clipPath2)" fill="none" x1="31" x2="33" y1="262" y2="262"/>
<line clip-path="url(#clipPath2)" fill="none" x1="1017" x2="1015" y1="262" y2="262"/>
<line clip-path="url(#clipPath2)" fill="none" x1="31" x2="33" y1="252" y2="252"/>
<line clip-path="url(#clipPath2)" fill="none" x1="1017" x2="1015" y1="252" y2="252"/>
<line clip-path="url(#clipPath2)" fill="none" x1="31" x2="33" y1="242" y2="242"/>
<line clip-path="url(#clipPath2)" fill="none" x1="1017" x2="1015" y1="242" y2="242"/>
<line clip-path="url(#clipPath2)" fill="none" x1="31" x2="33" y1="232" y2="232"/>
<line clip-path="url(#clipPath2)" fill="none" x1="1017" x2="1015" y1="232" y2="232"/>
<line clip-path="url(#clipPath2)" fill="none" x1="29" x2="33" y1="222" y2="222"/>
<line clip-path="url(#clipPath2)" fill="none" x1="1019" x2="1015" y1="222" y2="222"/>
<text x="8" font-size="8" y="226" clip-path="url(#clipPath2)" stroke="none" xml:space="preserve">40000</text>
<text x="1022" font-size="8" y="226" clip-path="url(#clipPath2)" stroke="none" xml:space="preserve">40000</text>
<line clip-path="url(#clipPath2)" fill="none" x1="31" x2="33" y1="211" y2="211"/>
<line clip-path="url(#clipPath2)" fill="none" x1="1017" x2="1015" y1="211" y2="211"/>
<line clip-path="url(#clipPath2)" fill="none" x1="31" x2="33" y1="201" y2="201"/>
<line clip-path="url(#clipPath2)" fill="none" x1="1017" x2="1015" y1="201" y2="201"/>
<line clip-path="url(#clipPath2)" fill="none" x1="31" x2="33" y1="191" y2="191"/>
<line clip-path="url(#clipPath2)" fill="none" x1="1017" x2="1015" y1="191" y2="191"/>
<line clip-path="url(#clipPath2)" fill="none" x1="31" x2="33" y1="181" y2="181"/>
<line clip-path="url(#clipPath2)" fill="none" x1="1017" x2="1015" y1="181" y2="181"/>
<line clip-path="url(#clipPath2)" fill="none" x1="29" x2="33" y1="171" y2="171"/>
<line clip-path="url(#clipPath2)" fill="none" x1="1019" x2="1015" y1="171" y2="171"/>
<text x="8" font-size="8" y="175" clip-path="url(#clipPath2)" stroke="none" xml:space="preserve">50000</text>
<text x="1022" font-size="8" y="175" clip-path="url(#clipPath2)" stroke="none" xml:space="preserve">50000</text>
<line clip-path="url(#clipPath2)" fill="none" x1="31" x2="33" y1="161" y2="161"/>
<line clip-path="url(#clipPath2)" fill="none" x1="1017" x2="1015" y1="161" y2="161"/>
<line clip-path="url(#clipPath2)" fill="none" x1="31" x2="33" y1="151" y2="151"/>
<line clip-path="url(#clipPath2)" fill="none" x1="1017" x2="1015" y1="151" y2="151"/>
<line clip-path="url(#clipPath2)" fill="none" x1="31" x2="33" y1="141" y2="141"/>
<line clip-path="url(#clipPath2)" fill="none" x1="1017" x2="1015" y1="141" y2="141"/>
<line clip-path="url(#clipPath2)" fill="none" x1="31" x2="33" y1="131" y2="131"/>
<line clip-path="url(#clipPath2)" fill="none" x1="1017" x2="1015" y1="131" y2="131"/>
<line clip-path="url(#clipPath2)" fill="none" x1="29" x2="33" y1="121" y2="121"/>
<line clip-path="url(#clipPath2)" fill="none" x1="1019" x2="1015" y1="121" y2="121"/>
<text x="8" font-size="8" y="125" clip-path="url(#clipPath2)" stroke="none" xml:space="preserve">60000</text>
<text x="1022" font-size="8" y="125" clip-path="url(#clipPath2)" stroke="none" xml:space="preserve">60000</text>
<line clip-path="url(#clipPath2)" fill="none" x1="31" x2="33" y1="110" y2="110"/>
<line clip-path="url(#clipPath2)" fill="none" x1="1017" x2="1015" y1="110" y2="110"/>
<line clip-path="url(#clipPath2)" fill="none" x1="31" x2="33" y1="100" y2="100"/>
<line clip-path="url(#clipPath2)" fill="none" x1="1017" x2="1015" y1="100" y2="100"/>
<line clip-path="url(#clipPath2)" fill="none" x1="31" x2="33" y1="90" y2="90"/>
<line clip-path="url(#clipPath2)" fill="none" x1="1017" x2="1015" y1="90" y2="90"/>
<line clip-path="url(#clipPath2)" fill="none" x1="31" x2="33" y1="80" y2="80"/>
<line clip-path="url(#clipPath2)" fill="none" x1="1017" x2="1015" y1="80" y2="80"/>
<line clip-path="url(#clipPath2)" fill="none" x1="29" x2="33" y1="70" y2="70"/>
<line clip-path="url(#clipPath2)" fill="none" x1="1019" x2="1015" y1="70" y2="70"/>
<text x="8" font-size="8" y="74" clip-path="url(#clipPath2)" stroke="none" xml:space="preserve">70000</text>
<text x="1022" font-size="8" y="74" clip-path="url(#clipPath2)" stroke="none" xml:space="preserve">70000</text>
<line clip-path="url(#clipPath2)" fill="none" x1="31" x2="33" y1="60" y2="60"/>
<line clip-path="url(#clipPath2)" fill="none" x1="1017" x2="1015" y1="60" y2="60"/>
<line clip-path="url(#clipPath2)" fill="none" x1="31" x2="33" y1="50" y2="50"/>
<line clip-path="url(#clipPath2)" fill="none" x1="1017" x2="1015" y1="50" y2="50"/>
<line clip-path="url(#clipPath2)" fill="none" x1="31" x2="33" y1="40" y2="40"/>
<line clip-path="url(#clipPath2)" fill="none" x1="1017" x2="1015" y1="40" y2="40"/>
<line clip-path="url(#clipPath2)" fill="none" x1="31" x2="33" y1="30" y2="30"/>
<line clip-path="url(#clipPath2)" fill="none" x1="1017" x2="1015" y1="30" y2="30"/>
</g>
</g>
</svg>
