<?xml version="1.0" encoding="UTF-8"?><svg xmlns="http://www.w3.org/2000/svg" xmlns:xlink="http://www.w3.org/1999/xlink" stroke-dasharray="none" shape-rendering="auto" font-family="'Dialog'" width="1048" text-rendering="auto" fill-opacity="1" contentScriptType="text/ecmascript" color-interpolation="auto" color-rendering="auto" preserveAspectRatio="xMidYMid meet" font-size="12" fill="black" stroke="black" image-rendering="auto" stroke-miterlimit="10" zoomAndPan="magnify" version="1.0" stroke-linecap="square" stroke-linejoin="miter" contentStyleType="text/css" font-style="normal" height="439" stroke-width="1" stroke-dashoffset="0" font-weight="normal" stroke-opacity="1">
<!--Generated by the Batik Graphics2D SVG Generator-->
<defs id="genericDefs"/>
<g>
<defs id="defs1">
<clipPath clipPathUnits="userSpaceOnUse" id="clipPath1">
<path d="M39 19 L1009 19 L1009 420 L39 420 L39 19 Z"/>
</clipPath>
<clipPath clipPathUnits="userSpaceOnUse" id="clipPath2">
<path d="M-1 -1 L1049 -1 L1049 440 L-1 440 L-1 -1 Z"/>
</clipPath>
</defs>
<g font-size="13" fill="white" text-rendering="geometricPrecision" stroke-linejoin="round" stroke="white" stroke-width="0" stroke-miterlimit="0">
<rect x="40" y="20" clip-path="url(#clipPath1)" width="968" height="399" stroke="none"/>
</g>
<g stroke-linecap="butt" font-size="13" fill="rgb(204,204,204)" text-rendering="geometricPrecision" stroke-dasharray="3,3" stroke="rgb(204,204,204)">
<line clip-path="url(#clipPath1)" fill="none" x1="40" x2="40" y1="20" y2="419"/>
<line clip-path="url(#clipPath1)" fill="none" x1="135" x2="135" y1="20" y2="419"/>
<line clip-path="url(#clipPath1)" fill="none" x1="231" x2="231" y1="20" y2="419"/>
<line clip-path="url(#clipPath1)" fill="none" x1="326" x2="326" y1="20" y2="419"/>
<line clip-path="url(#clipPath1)" fill="none" x1="422" x2="422" y1="20" y2="419"/>
<line clip-path="url(#clipPath1)" fill="none" x1="517" x2="517" y1="20" y2="419"/>
<line clip-path="url(#clipPath1)" fill="none" x1="613" x2="613" y1="20" y2="419"/>
<line clip-path="url(#clipPath1)" fill="none" x1="708" x2="708" y1="20" y2="419"/>
<line clip-path="url(#clipPath1)" fill="none" x1="804" x2="804" y1="20" y2="419"/>
<line clip-path="url(#clipPath1)" fill="none" x1="899" x2="899" y1="20" y2="419"/>
<line clip-path="url(#clipPath1)" fill="none" x1="995" x2="995" y1="20" y2="419"/>
<line clip-path="url(#clipPath1)" fill="none" x1="40" x2="1008" y1="419" y2="419"/>
<line clip-path="url(#clipPath1)" fill="none" x1="40" x2="1008" y1="319" y2="319"/>
<line clip-path="url(#clipPath1)" fill="none" x1="40" x2="1008" y1="219" y2="219"/>
<line clip-path="url(#clipPath1)" fill="none" x1="40" x2="1008" y1="119" y2="119"/>
<line clip-path="url(#clipPath1)" fill="none" x1="40" x2="1008" y1="20" y2="20"/>
<rect x="993" y="414" clip-path="url(#clipPath1)" fill="rgb(0,0,139)" width="5" height="5" stroke="none"/>
</g>
<g stroke-linecap="butt" font-size="13" fill="rgb(0,0,139)" text-rendering="geometricPrecision" shape-rendering="crispEdges" stroke="rgb(0,0,139)">
<line clip-path="url(#clipPath1)" fill="none" x1="995" x2="995" y1="416" y2="413"/>
<rect x="993" y="411" clip-path="url(#clipPath1)" width="5" shape-rendering="auto" height="5" stroke="none"/>
<line clip-path="url(#clipPath1)" fill="none" x1="995" x2="995" y1="413" y2="410"/>
<rect x="993" y="408" clip-path="url(#clipPath1)" width="5" shape-rendering="auto" height="5" stroke="none"/>
<line clip-path="url(#clipPath1)" fill="none" x1="995" x2="995" y1="410" y2="408"/>
<rect x="993" y="406" clip-path="url(#clipPath1)" width="5" shape-rendering="auto" height="5" stroke="none"/>
<line clip-path="url(#clipPath1)" fill="none" x1="995" x2="995" y1="408" y2="405"/>
<rect x="993" y="403" clip-path="url(#clipPath1)" width="5" shape-rendering="auto" height="5" stroke="none"/>
<line clip-path="url(#clipPath1)" fill="none" x1="995" x2="995" y1="405" y2="402"/>
<rect x="993" y="400" clip-path="url(#clipPath1)" width="5" shape-rendering="auto" height="5" stroke="none"/>
<line clip-path="url(#clipPath1)" fill="none" x1="995" x2="995" y1="402" y2="400"/>
<rect x="993" y="398" clip-path="url(#clipPath1)" width="5" shape-rendering="auto" height="5" stroke="none"/>
<line clip-path="url(#clipPath1)" fill="none" x1="995" x2="995" y1="400" y2="397"/>
<rect x="993" y="395" clip-path="url(#clipPath1)" width="5" shape-rendering="auto" height="5" stroke="none"/>
<line clip-path="url(#clipPath1)" fill="none" x1="995" x2="995" y1="397" y2="394"/>
<rect x="993" y="392" clip-path="url(#clipPath1)" width="5" shape-rendering="auto" height="5" stroke="none"/>
<line clip-path="url(#clipPath1)" fill="none" x1="995" x2="995" y1="394" y2="392"/>
<rect x="993" y="390" clip-path="url(#clipPath1)" width="5" shape-rendering="auto" height="5" stroke="none"/>
<line clip-path="url(#clipPath1)" fill="none" x1="995" x2="995" y1="392" y2="389"/>
<rect x="993" y="387" clip-path="url(#clipPath1)" width="5" shape-rendering="auto" height="5" stroke="none"/>
<line clip-path="url(#clipPath1)" fill="none" x1="995" x2="995" y1="389" y2="386"/>
<rect x="993" y="384" clip-path="url(#clipPath1)" width="5" shape-rendering="auto" height="5" stroke="none"/>
<line clip-path="url(#clipPath1)" fill="none" x1="995" x2="995" y1="386" y2="384"/>
<rect x="993" y="382" clip-path="url(#clipPath1)" width="5" shape-rendering="auto" height="5" stroke="none"/>
<line clip-path="url(#clipPath1)" fill="none" x1="995" x2="995" y1="384" y2="381"/>
<rect x="993" y="379" clip-path="url(#clipPath1)" width="5" shape-rendering="auto" height="5" stroke="none"/>
<line clip-path="url(#clipPath1)" fill="none" x1="995" x2="995" y1="381" y2="378"/>
<rect x="993" y="376" clip-path="url(#clipPath1)" width="5" shape-rendering="auto" height="5" stroke="none"/>
<line clip-path="url(#clipPath1)" fill="none" x1="995" x2="995" y1="378" y2="376"/>
<rect x="993" y="374" clip-path="url(#clipPath1)" width="5" shape-rendering="auto" height="5" stroke="none"/>
<line clip-path="url(#clipPath1)" fill="none" x1="995" x2="995" y1="376" y2="373"/>
<rect x="993" y="371" clip-path="url(#clipPath1)" width="5" shape-rendering="auto" height="5" stroke="none"/>
<line clip-path="url(#clipPath1)" fill="none" x1="995" x2="995" y1="373" y2="370"/>
<rect x="993" y="368" clip-path="url(#clipPath1)" width="5" shape-rendering="auto" height="5" stroke="none"/>
<line clip-path="url(#clipPath1)" fill="none" x1="995" x2="995" y1="370" y2="368"/>
<rect x="993" y="366" clip-path="url(#clipPath1)" width="5" shape-rendering="auto" height="5" stroke="none"/>
<line clip-path="url(#clipPath1)" fill="none" x1="995" x2="995" y1="368" y2="365"/>
<rect x="993" y="363" clip-path="url(#clipPath1)" width="5" shape-rendering="auto" height="5" stroke="none"/>
<line clip-path="url(#clipPath1)" fill="none" x1="995" x2="995" y1="365" y2="362"/>
<rect x="993" y="360" clip-path="url(#clipPath1)" width="5" shape-rendering="auto" height="5" stroke="none"/>
<line clip-path="url(#clipPath1)" fill="none" x1="995" x2="995" y1="362" y2="360"/>
<rect x="993" y="358" clip-path="url(#clipPath1)" width="5" shape-rendering="auto" height="5" stroke="none"/>
<line clip-path="url(#clipPath1)" fill="none" x1="995" x2="995" y1="360" y2="357"/>
<rect x="993" y="355" clip-path="url(#clipPath1)" width="5" shape-rendering="auto" height="5" stroke="none"/>
<line clip-path="url(#clipPath1)" fill="none" x1="995" x2="995" y1="357" y2="354"/>
<rect x="993" y="352" clip-path="url(#clipPath1)" width="5" shape-rendering="auto" height="5" stroke="none"/>
<line clip-path="url(#clipPath1)" fill="none" x1="995" x2="995" y1="354" y2="352"/>
<rect x="993" y="350" clip-path="url(#clipPath1)" width="5" shape-rendering="auto" height="5" stroke="none"/>
<line clip-path="url(#clipPath1)" fill="none" x1="995" x2="995" y1="352" y2="349"/>
<rect x="993" y="347" clip-path="url(#clipPath1)" width="5" shape-rendering="auto" height="5" stroke="none"/>
<line clip-path="url(#clipPath1)" fill="none" x1="995" x2="995" y1="349" y2="346"/>
<rect x="993" y="344" clip-path="url(#clipPath1)" width="5" shape-rendering="auto" height="5" stroke="none"/>
<line clip-path="url(#clipPath1)" fill="none" x1="995" x2="995" y1="346" y2="344"/>
<rect x="993" y="342" clip-path="url(#clipPath1)" width="5" shape-rendering="auto" height="5" stroke="none"/>
<line clip-path="url(#clipPath1)" fill="none" x1="995" x2="995" y1="344" y2="341"/>
<rect x="993" y="339" clip-path="url(#clipPath1)" width="5" shape-rendering="auto" height="5" stroke="none"/>
<line clip-path="url(#clipPath1)" fill="none" x1="995" x2="995" y1="341" y2="338"/>
<rect x="993" y="336" clip-path="url(#clipPath1)" width="5" shape-rendering="auto" height="5" stroke="none"/>
<line clip-path="url(#clipPath1)" fill="none" x1="995" x2="995" y1="338" y2="336"/>
<rect x="993" y="334" clip-path="url(#clipPath1)" width="5" shape-rendering="auto" height="5" stroke="none"/>
<line clip-path="url(#clipPath1)" fill="none" x1="995" x2="995" y1="336" y2="333"/>
<rect x="993" y="331" clip-path="url(#clipPath1)" width="5" shape-rendering="auto" height="5" stroke="none"/>
<line clip-path="url(#clipPath1)" fill="none" x1="995" x2="995" y1="333" y2="330"/>
<rect x="993" y="328" clip-path="url(#clipPath1)" width="5" shape-rendering="auto" height="5" stroke="none"/>
<line clip-path="url(#clipPath1)" fill="none" x1="995" x2="995" y1="330" y2="328"/>
<rect x="993" y="326" clip-path="url(#clipPath1)" width="5" shape-rendering="auto" height="5" stroke="none"/>
<line clip-path="url(#clipPath1)" fill="none" x1="995" x2="995" y1="328" y2="325"/>
<rect x="993" y="323" clip-path="url(#clipPath1)" width="5" shape-rendering="auto" height="5" stroke="none"/>
<line clip-path="url(#clipPath1)" fill="none" x1="995" x2="995" y1="325" y2="322"/>
<rect x="993" y="320" clip-path="url(#clipPath1)" width="5" shape-rendering="auto" height="5" stroke="none"/>
<line clip-path="url(#clipPath1)" fill="none" x1="995" x2="995" y1="322" y2="320"/>
<rect x="993" y="318" clip-path="url(#clipPath1)" width="5" shape-rendering="auto" height="5" stroke="none"/>
<line clip-path="url(#clipPath1)" fill="none" x1="995" x2="995" y1="320" y2="317"/>
<rect x="993" y="315" clip-path="url(#clipPath1)" width="5" shape-rendering="auto" height="5" stroke="none"/>
<line clip-path="url(#clipPath1)" fill="none" x1="995" x2="995" y1="317" y2="314"/>
<rect x="993" y="312" clip-path="url(#clipPath1)" width="5" shape-rendering="auto" height="5" stroke="none"/>
<line clip-path="url(#clipPath1)" fill="none" x1="995" x2="995" y1="314" y2="312"/>
<rect x="993" y="310" clip-path="url(#clipPath1)" width="5" shape-rendering="auto" height="5" stroke="none"/>
<line clip-path="url(#clipPath1)" fill="none" x1="995" x2="995" y1="312" y2="309"/>
<rect x="993" y="307" clip-path="url(#clipPath1)" width="5" shape-rendering="auto" height="5" stroke="none"/>
<line clip-path="url(#clipPath1)" fill="none" x1="995" x2="995" y1="309" y2="306"/>
<rect x="993" y="304" clip-path="url(#clipPath1)" width="5" shape-rendering="auto" height="5" stroke="none"/>
<line clip-path="url(#clipPath1)" fill="none" x1="995" x2="995" y1="306" y2="304"/>
<rect x="993" y="302" clip-path="url(#clipPath1)" width="5" shape-rendering="auto" height="5" stroke="none"/>
<line clip-path="url(#clipPath1)" fill="none" x1="995" x2="995" y1="304" y2="301"/>
<rect x="993" y="299" clip-path="url(#clipPath1)" width="5" shape-rendering="auto" height="5" stroke="none"/>
<line clip-path="url(#clipPath1)" fill="none" x1="995" x2="995" y1="301" y2="298"/>
<rect x="993" y="296" clip-path="url(#clipPath1)" width="5" shape-rendering="auto" height="5" stroke="none"/>
<line clip-path="url(#clipPath1)" fill="none" x1="995" x2="995" y1="298" y2="296"/>
<rect x="993" y="294" clip-path="url(#clipPath1)" width="5" shape-rendering="auto" height="5" stroke="none"/>
<line clip-path="url(#clipPath1)" fill="none" x1="995" x2="995" y1="296" y2="293"/>
<rect x="993" y="291" clip-path="url(#clipPath1)" width="5" shape-rendering="auto" height="5" stroke="none"/>
<line clip-path="url(#clipPath1)" fill="none" x1="995" x2="995" y1="293" y2="290"/>
<rect x="993" y="288" clip-path="url(#clipPath1)" width="5" shape-rendering="auto" height="5" stroke="none"/>
<line clip-path="url(#clipPath1)" fill="none" x1="995" x2="995" y1="290" y2="288"/>
<rect x="993" y="286" clip-path="url(#clipPath1)" width="5" shape-rendering="auto" height="5" stroke="none"/>
<line clip-path="url(#clipPath1)" fill="none" x1="995" x2="995" y1="288" y2="285"/>
<rect x="993" y="283" clip-path="url(#clipPath1)" width="5" shape-rendering="auto" height="5" stroke="none"/>
<line clip-path="url(#clipPath1)" fill="none" x1="995" x2="995" y1="285" y2="282"/>
<rect x="993" y="280" clip-path="url(#clipPath1)" width="5" shape-rendering="auto" height="5" stroke="none"/>
<line clip-path="url(#clipPath1)" fill="none" x1="995" x2="995" y1="282" y2="279"/>
<rect x="993" y="277" clip-path="url(#clipPath1)" width="5" shape-rendering="auto" height="5" stroke="none"/>
<line clip-path="url(#clipPath1)" fill="none" x1="995" x2="995" y1="279" y2="277"/>
<rect x="993" y="275" clip-path="url(#clipPath1)" width="5" shape-rendering="auto" height="5" stroke="none"/>
<line clip-path="url(#clipPath1)" fill="none" x1="995" x2="995" y1="277" y2="274"/>
<rect x="993" y="272" clip-path="url(#clipPath1)" width="5" shape-rendering="auto" height="5" stroke="none"/>
<line clip-path="url(#clipPath1)" fill="none" x1="995" x2="995" y1="274" y2="271"/>
<rect x="993" y="269" clip-path="url(#clipPath1)" width="5" shape-rendering="auto" height="5" stroke="none"/>
<line clip-path="url(#clipPath1)" fill="none" x1="995" x2="995" y1="271" y2="269"/>
<rect x="993" y="267" clip-path="url(#clipPath1)" width="5" shape-rendering="auto" height="5" stroke="none"/>
<line clip-path="url(#clipPath1)" fill="none" x1="995" x2="995" y1="269" y2="266"/>
<rect x="993" y="264" clip-path="url(#clipPath1)" width="5" shape-rendering="auto" height="5" stroke="none"/>
<line clip-path="url(#clipPath1)" fill="none" x1="995" x2="995" y1="266" y2="263"/>
<rect x="993" y="261" clip-path="url(#clipPath1)" width="5" shape-rendering="auto" height="5" stroke="none"/>
<line clip-path="url(#clipPath1)" fill="none" x1="995" x2="995" y1="263" y2="261"/>
<rect x="993" y="259" clip-path="url(#clipPath1)" width="5" shape-rendering="auto" height="5" stroke="none"/>
<line clip-path="url(#clipPath1)" fill="none" x1="995" x2="995" y1="261" y2="258"/>
<rect x="993" y="256" clip-path="url(#clipPath1)" width="5" shape-rendering="auto" height="5" stroke="none"/>
<line clip-path="url(#clipPath1)" fill="none" x1="995" x2="995" y1="258" y2="255"/>
<rect x="993" y="253" clip-path="url(#clipPath1)" width="5" shape-rendering="auto" height="5" stroke="none"/>
<line clip-path="url(#clipPath1)" fill="none" x1="995" x2="995" y1="255" y2="253"/>
<rect x="993" y="251" clip-path="url(#clipPath1)" width="5" shape-rendering="auto" height="5" stroke="none"/>
<line clip-path="url(#clipPath1)" fill="none" x1="995" x2="995" y1="253" y2="250"/>
<rect x="993" y="248" clip-path="url(#clipPath1)" width="5" shape-rendering="auto" height="5" stroke="none"/>
<line clip-path="url(#clipPath1)" fill="none" x1="995" x2="995" y1="250" y2="247"/>
<rect x="993" y="245" clip-path="url(#clipPath1)" width="5" shape-rendering="auto" height="5" stroke="none"/>
<line clip-path="url(#clipPath1)" fill="none" x1="995" x2="995" y1="247" y2="245"/>
<rect x="993" y="243" clip-path="url(#clipPath1)" width="5" shape-rendering="auto" height="5" stroke="none"/>
<line clip-path="url(#clipPath1)" fill="none" x1="995" x2="995" y1="245" y2="242"/>
<rect x="993" y="240" clip-path="url(#clipPath1)" width="5" shape-rendering="auto" height="5" stroke="none"/>
<line clip-path="url(#clipPath1)" fill="none" x1="995" x2="995" y1="242" y2="239"/>
<rect x="993" y="237" clip-path="url(#clipPath1)" width="5" shape-rendering="auto" height="5" stroke="none"/>
<line clip-path="url(#clipPath1)" fill="none" x1="995" x2="995" y1="239" y2="237"/>
<rect x="993" y="235" clip-path="url(#clipPath1)" width="5" shape-rendering="auto" height="5" stroke="none"/>
<line clip-path="url(#clipPath1)" fill="none" x1="995" x2="995" y1="237" y2="234"/>
<rect x="993" y="232" clip-path="url(#clipPath1)" width="5" shape-rendering="auto" height="5" stroke="none"/>
<line clip-path="url(#clipPath1)" fill="none" x1="995" x2="995" y1="234" y2="231"/>
<rect x="993" y="229" clip-path="url(#clipPath1)" width="5" shape-rendering="auto" height="5" stroke="none"/>
<line clip-path="url(#clipPath1)" fill="none" x1="995" x2="995" y1="231" y2="229"/>
<rect x="993" y="227" clip-path="url(#clipPath1)" width="5" shape-rendering="auto" height="5" stroke="none"/>
<line clip-path="url(#clipPath1)" fill="none" x1="995" x2="995" y1="229" y2="226"/>
<rect x="993" y="224" clip-path="url(#clipPath1)" width="5" shape-rendering="auto" height="5" stroke="none"/>
<line clip-path="url(#clipPath1)" fill="none" x1="995" x2="995" y1="226" y2="223"/>
<rect x="993" y="221" clip-path="url(#clipPath1)" width="5" shape-rendering="auto" height="5" stroke="none"/>
<line clip-path="url(#clipPath1)" fill="none" x1="995" x2="995" y1="223" y2="221"/>
<rect x="993" y="219" clip-path="url(#clipPath1)" width="5" shape-rendering="auto" height="5" stroke="none"/>
<line clip-path="url(#clipPath1)" fill="none" x1="995" x2="995" y1="221" y2="218"/>
<rect x="993" y="216" clip-path="url(#clipPath1)" width="5" shape-rendering="auto" height="5" stroke="none"/>
<line clip-path="url(#clipPath1)" fill="none" x1="995" x2="995" y1="218" y2="215"/>
<rect x="993" y="213" clip-path="url(#clipPath1)" width="5" shape-rendering="auto" height="5" stroke="none"/>
<line clip-path="url(#clipPath1)" fill="none" x1="995" x2="995" y1="215" y2="213"/>
<rect x="993" y="211" clip-path="url(#clipPath1)" width="5" shape-rendering="auto" height="5" stroke="none"/>
<line clip-path="url(#clipPath1)" fill="none" x1="995" x2="995" y1="213" y2="210"/>
<rect x="993" y="208" clip-path="url(#clipPath1)" width="5" shape-rendering="auto" height="5" stroke="none"/>
<line clip-path="url(#clipPath1)" fill="none" x1="995" x2="995" y1="210" y2="207"/>
<rect x="993" y="205" clip-path="url(#clipPath1)" width="5" shape-rendering="auto" height="5" stroke="none"/>
<line clip-path="url(#clipPath1)" fill="none" x1="995" x2="995" y1="207" y2="205"/>
<rect x="993" y="203" clip-path="url(#clipPath1)" width="5" shape-rendering="auto" height="5" stroke="none"/>
<line clip-path="url(#clipPath1)" fill="none" x1="995" x2="995" y1="205" y2="202"/>
<rect x="993" y="200" clip-path="url(#clipPath1)" width="5" shape-rendering="auto" height="5" stroke="none"/>
<line clip-path="url(#clipPath1)" fill="none" x1="995" x2="995" y1="202" y2="199"/>
<rect x="993" y="197" clip-path="url(#clipPath1)" width="5" shape-rendering="auto" height="5" stroke="none"/>
<line clip-path="url(#clipPath1)" fill="none" x1="995" x2="995" y1="199" y2="197"/>
<rect x="993" y="195" clip-path="url(#clipPath1)" width="5" shape-rendering="auto" height="5" stroke="none"/>
<line clip-path="url(#clipPath1)" fill="none" x1="995" x2="995" y1="197" y2="194"/>
<rect x="993" y="192" clip-path="url(#clipPath1)" width="5" shape-rendering="auto" height="5" stroke="none"/>
<line clip-path="url(#clipPath1)" fill="none" x1="995" x2="995" y1="194" y2="191"/>
<rect x="993" y="189" clip-path="url(#clipPath1)" width="5" shape-rendering="auto" height="5" stroke="none"/>
<line clip-path="url(#clipPath1)" fill="none" x1="995" x2="995" y1="191" y2="189"/>
<rect x="993" y="187" clip-path="url(#clipPath1)" width="5" shape-rendering="auto" height="5" stroke="none"/>
<line clip-path="url(#clipPath1)" fill="none" x1="995" x2="995" y1="189" y2="186"/>
<rect x="993" y="184" clip-path="url(#clipPath1)" width="5" shape-rendering="auto" height="5" stroke="none"/>
<line clip-path="url(#clipPath1)" fill="none" x1="995" x2="995" y1="186" y2="183"/>
<rect x="993" y="181" clip-path="url(#clipPath1)" width="5" shape-rendering="auto" height="5" stroke="none"/>
<line clip-path="url(#clipPath1)" fill="none" x1="995" x2="995" y1="183" y2="181"/>
<rect x="993" y="179" clip-path="url(#clipPath1)" width="5" shape-rendering="auto" height="5" stroke="none"/>
<line clip-path="url(#clipPath1)" fill="none" x1="995" x2="995" y1="181" y2="178"/>
<rect x="993" y="176" clip-path="url(#clipPath1)" width="5" shape-rendering="auto" height="5" stroke="none"/>
<line clip-path="url(#clipPath1)" fill="none" x1="995" x2="995" y1="178" y2="175"/>
<rect x="993" y="173" clip-path="url(#clipPath1)" width="5" shape-rendering="auto" height="5" stroke="none"/>
<line clip-path="url(#clipPath1)" fill="none" x1="995" x2="995" y1="175" y2="173"/>
<rect x="993" y="171" clip-path="url(#clipPath1)" width="5" shape-rendering="auto" height="5" stroke="none"/>
<line clip-path="url(#clipPath1)" fill="none" x1="995" x2="995" y1="173" y2="170"/>
<rect x="993" y="168" clip-path="url(#clipPath1)" width="5" shape-rendering="auto" height="5" stroke="none"/>
<line clip-path="url(#clipPath1)" fill="none" x1="995" x2="995" y1="170" y2="167"/>
<rect x="993" y="165" clip-path="url(#clipPath1)" width="5" shape-rendering="auto" height="5" stroke="none"/>
<line clip-path="url(#clipPath1)" fill="none" x1="995" x2="995" y1="167" y2="165"/>
<rect x="993" y="163" clip-path="url(#clipPath1)" width="5" shape-rendering="auto" height="5" stroke="none"/>
<line clip-path="url(#clipPath1)" fill="none" x1="995" x2="995" y1="165" y2="162"/>
<rect x="993" y="160" clip-path="url(#clipPath1)" width="5" shape-rendering="auto" height="5" stroke="none"/>
<line clip-path="url(#clipPath1)" fill="none" x1="995" x2="995" y1="162" y2="159"/>
<rect x="993" y="157" clip-path="url(#clipPath1)" width="5" shape-rendering="auto" height="5" stroke="none"/>
<line clip-path="url(#clipPath1)" fill="none" x1="995" x2="995" y1="159" y2="157"/>
<rect x="993" y="155" clip-path="url(#clipPath1)" width="5" shape-rendering="auto" height="5" stroke="none"/>
<line clip-path="url(#clipPath1)" fill="none" x1="995" x2="995" y1="157" y2="154"/>
<rect x="993" y="152" clip-path="url(#clipPath1)" width="5" shape-rendering="auto" height="5" stroke="none"/>
<line clip-path="url(#clipPath1)" fill="none" x1="995" x2="995" y1="154" y2="151"/>
<rect x="993" y="149" clip-path="url(#clipPath1)" width="5" shape-rendering="auto" height="5" stroke="none"/>
<line clip-path="url(#clipPath1)" fill="none" x1="995" x2="995" y1="151" y2="148"/>
<rect x="993" y="146" clip-path="url(#clipPath1)" width="5" shape-rendering="auto" height="5" stroke="none"/>
<line clip-path="url(#clipPath1)" fill="none" x1="995" x2="996" y1="148" y2="146" shape-rendering="auto"/>
<rect x="994" y="144" clip-path="url(#clipPath1)" width="5" shape-rendering="auto" height="5" stroke="none"/>
<line clip-path="url(#clipPath1)" fill="none" x1="996" x2="996" y1="146" y2="143"/>
<rect x="994" y="141" clip-path="url(#clipPath1)" width="5" shape-rendering="auto" height="5" stroke="none"/>
<line clip-path="url(#clipPath1)" fill="none" x1="996" x2="996" y1="143" y2="140"/>
<rect x="994" y="138" clip-path="url(#clipPath1)" width="5" shape-rendering="auto" height="5" stroke="none"/>
<line clip-path="url(#clipPath1)" fill="none" x1="996" x2="996" y1="140" y2="138"/>
<rect x="994" y="136" clip-path="url(#clipPath1)" width="5" shape-rendering="auto" height="5" stroke="none"/>
<line clip-path="url(#clipPath1)" fill="none" x1="996" x2="996" y1="138" y2="135"/>
<rect x="994" y="133" clip-path="url(#clipPath1)" width="5" shape-rendering="auto" height="5" stroke="none"/>
<line clip-path="url(#clipPath1)" fill="none" x1="996" x2="996" y1="135" y2="132"/>
<rect x="994" y="130" clip-path="url(#clipPath1)" width="5" shape-rendering="auto" height="5" stroke="none"/>
<line clip-path="url(#clipPath1)" fill="none" x1="996" x2="996" y1="132" y2="130"/>
<rect x="994" y="128" clip-path="url(#clipPath1)" width="5" shape-rendering="auto" height="5" stroke="none"/>
<line clip-path="url(#clipPath1)" fill="none" x1="996" x2="996" y1="130" y2="127"/>
<rect x="994" y="125" clip-path="url(#clipPath1)" width="5" shape-rendering="auto" height="5" stroke="none"/>
<line clip-path="url(#clipPath1)" fill="none" x1="996" x2="996" y1="127" y2="124"/>
<rect x="994" y="122" clip-path="url(#clipPath1)" width="5" shape-rendering="auto" height="5" stroke="none"/>
<line clip-path="url(#clipPath1)" fill="none" x1="996" x2="996" y1="124" y2="122"/>
<rect x="994" y="120" clip-path="url(#clipPath1)" width="5" shape-rendering="auto" height="5" stroke="none"/>
<line clip-path="url(#clipPath1)" fill="none" x1="996" x2="996" y1="122" y2="119"/>
<rect x="994" y="117" clip-path="url(#clipPath1)" width="5" shape-rendering="auto" height="5" stroke="none"/>
<rect x="40" y="20" clip-path="url(#clipPath2)" fill="none" width="968" shape-rendering="auto" height="399" stroke="black"/>
</g>
<g text-rendering="geometricPrecision" font-size="10" font-family="'Arial'" stroke-linecap="butt">
<line clip-path="url(#clipPath2)" fill="none" x1="40" x2="1008" y1="18" y2="18"/>
<line clip-path="url(#clipPath2)" fill="none" x1="40" x2="1008" y1="421" y2="421"/>
<line clip-path="url(#clipPath2)" fill="none" x1="40" x2="40" y1="14" y2="18"/>
<line clip-path="url(#clipPath2)" fill="none" x1="40" x2="40" y1="425" y2="421"/>
<text x="35" font-size="8" y="12" clip-path="url(#clipPath2)" stroke="none" xml:space="preserve">0.0</text>
<text x="35" font-size="8" y="434" clip-path="url(#clipPath2)" stroke="none" xml:space="preserve">0.0</text>
<line clip-path="url(#clipPath2)" fill="none" x1="59" x2="59" y1="16" y2="18"/>
<line clip-path="url(#clipPath2)" fill="none" x1="59" x2="59" y1="423" y2="421"/>
<line clip-path="url(#clipPath2)" fill="none" x1="78" x2="78" y1="16" y2="18"/>
<line clip-path="url(#clipPath2)" fill="none" x1="78" x2="78" y1="423" y2="421"/>
<line clip-path="url(#clipPath2)" fill="none" x1="97" x2="97" y1="16" y2="18"/>
<line clip-path="url(#clipPath2)" fill="none" x1="97" x2="97" y1="423" y2="421"/>
<line clip-path="url(#clipPath2)" fill="none" x1="116" x2="116" y1="16" y2="18"/>
<line clip-path="url(#clipPath2)" fill="none" x1="116" x2="116" y1="423" y2="421"/>
<line clip-path="url(#clipPath2)" fill="none" x1="135" x2="135" y1="14" y2="18"/>
<line clip-path="url(#clipPath2)" fill="none" x1="135" x2="135" y1="425" y2="421"/>
<text x="128" font-size="8" y="12" clip-path="url(#clipPath2)" stroke="none" xml:space="preserve">0.10</text>
<text x="128" font-size="8" y="434" clip-path="url(#clipPath2)" stroke="none" xml:space="preserve">0.10</text>
<line clip-path="url(#clipPath2)" fill="none" x1="154" x2="154" y1="16" y2="18"/>
<line clip-path="url(#clipPath2)" fill="none" x1="154" x2="154" y1="423" y2="421"/>
<line clip-path="url(#clipPath2)" fill="none" x1="173" x2="173" y1="16" y2="18"/>
<line clip-path="url(#clipPath2)" fill="none" x1="173" x2="173" y1="423" y2="421"/>
<line clip-path="url(#clipPath2)" fill="none" x1="192" x2="192" y1="16" y2="18"/>
<line clip-path="url(#clipPath2)" fill="none" x1="192" x2="192" y1="423" y2="421"/>
<line clip-path="url(#clipPath2)" fill="none" x1="211" x2="211" y1="16" y2="18"/>
<line clip-path="url(#clipPath2)" fill="none" x1="211" x2="211" y1="423" y2="421"/>
<line clip-path="url(#clipPath2)" fill="none" x1="231" x2="231" y1="14" y2="18"/>
<line clip-path="url(#clipPath2)" fill="none" x1="231" x2="231" y1="425" y2="421"/>
<text x="224" font-size="8" y="12" clip-path="url(#clipPath2)" stroke="none" xml:space="preserve">0.20</text>
<text x="224" font-size="8" y="434" clip-path="url(#clipPath2)" stroke="none" xml:space="preserve">0.20</text>
<line clip-path="url(#clipPath2)" fill="none" x1="250" x2="250" y1="16" y2="18"/>
<line clip-path="url(#clipPath2)" fill="none" x1="250" x2="250" y1="423" y2="421"/>
<line clip-path="url(#clipPath2)" fill="none" x1="269" x2="269" y1="16" y2="18"/>
<line clip-path="url(#clipPath2)" fill="none" x1="269" x2="269" y1="423" y2="421"/>
<line clip-path="url(#clipPath2)" fill="none" x1="288" x2="288" y1="16" y2="18"/>
<line clip-path="url(#clipPath2)" fill="none" x1="288" x2="288" y1="423" y2="421"/>
<line clip-path="url(#clipPath2)" fill="none" x1="307" x2="307" y1="16" y2="18"/>
<line clip-path="url(#clipPath2)" fill="none" x1="307" x2="307" y1="423" y2="421"/>
<line clip-path="url(#clipPath2)" fill="none" x1="326" x2="326" y1="14" y2="18"/>
<line clip-path="url(#clipPath2)" fill="none" x1="326" x2="326" y1="425" y2="421"/>
<text x="319" font-size="8" y="12" clip-path="url(#clipPath2)" stroke="none" xml:space="preserve">0.30</text>
<text x="319" font-size="8" y="434" clip-path="url(#clipPath2)" stroke="none" xml:space="preserve">0.30</text>
<line clip-path="url(#clipPath2)" fill="none" x1="345" x2="345" y1="16" y2="18"/>
<line clip-path="url(#clipPath2)" fill="none" x1="345" x2="345" y1="423" y2="421"/>
<line clip-path="url(#clipPath2)" fill="none" x1="364" x2="364" y1="16" y2="18"/>
<line clip-path="url(#clipPath2)" fill="none" x1="364" x2="364" y1="423" y2="421"/>
<line clip-path="url(#clipPath2)" fill="none" x1="383" x2="383" y1="16" y2="18"/>
<line clip-path="url(#clipPath2)" fill="none" x1="383" x2="383" y1="423" y2="421"/>
<line clip-path="url(#clipPath2)" fill="none" x1="403" x2="403" y1="16" y2="18"/>
<line clip-path="url(#clipPath2)" fill="none" x1="403" x2="403" y1="423" y2="421"/>
<line clip-path="url(#clipPath2)" fill="none" x1="422" x2="422" y1="14" y2="18"/>
<line clip-path="url(#clipPath2)" fill="none" x1="422" x2="422" y1="425" y2="421"/>
<text x="415" font-size="8" y="12" clip-path="url(#clipPath2)" stroke="none" xml:space="preserve">0.40</text>
<text x="415" font-size="8" y="434" clip-path="url(#clipPath2)" stroke="none" xml:space="preserve">0.40</text>
<line clip-path="url(#clipPath2)" fill="none" x1="441" x2="441" y1="16" y2="18"/>
<line clip-path="url(#clipPath2)" fill="none" x1="441" x2="441" y1="423" y2="421"/>
<line clip-path="url(#clipPath2)" fill="none" x1="460" x2="460" y1="16" y2="18"/>
<line clip-path="url(#clipPath2)" fill="none" x1="460" x2="460" y1="423" y2="421"/>
<line clip-path="url(#clipPath2)" fill="none" x1="479" x2="479" y1="16" y2="18"/>
<line clip-path="url(#clipPath2)" fill="none" x1="479" x2="479" y1="423" y2="421"/>
<line clip-path="url(#clipPath2)" fill="none" x1="498" x2="498" y1="16" y2="18"/>
<line clip-path="url(#clipPath2)" fill="none" x1="498" x2="498" y1="423" y2="421"/>
<line clip-path="url(#clipPath2)" fill="none" x1="517" x2="517" y1="14" y2="18"/>
<line clip-path="url(#clipPath2)" fill="none" x1="517" x2="517" y1="425" y2="421"/>
<text x="510" font-size="8" y="12" clip-path="url(#clipPath2)" stroke="none" xml:space="preserve">0.50</text>
<text x="510" font-size="8" y="434" clip-path="url(#clipPath2)" stroke="none" xml:space="preserve">0.50</text>
<line clip-path="url(#clipPath2)" fill="none" x1="536" x2="536" y1="16" y2="18"/>
<line clip-path="url(#clipPath2)" fill="none" x1="536" x2="536" y1="423" y2="421"/>
<line clip-path="url(#clipPath2)" fill="none" x1="555" x2="555" y1="16" y2="18"/>
<line clip-path="url(#clipPath2)" fill="none" x1="555" x2="555" y1="423" y2="421"/>
<line clip-path="url(#clipPath2)" fill="none" x1="575" x2="575" y1="16" y2="18"/>
<line clip-path="url(#clipPath2)" fill="none" x1="575" x2="575" y1="423" y2="421"/>
<line clip-path="url(#clipPath2)" fill="none" x1="594" x2="594" y1="16" y2="18"/>
<line clip-path="url(#clipPath2)" fill="none" x1="594" x2="594" y1="423" y2="421"/>
<line clip-path="url(#clipPath2)" fill="none" x1="613" x2="613" y1="14" y2="18"/>
<line clip-path="url(#clipPath2)" fill="none" x1="613" x2="613" y1="425" y2="421"/>
<text x="606" font-size="8" y="12" clip-path="url(#clipPath2)" stroke="none" xml:space="preserve">0.60</text>
<text x="606" font-size="8" y="434" clip-path="url(#clipPath2)" stroke="none" xml:space="preserve">0.60</text>
<line clip-path="url(#clipPath2)" fill="none" x1="632" x2="632" y1="16" y2="18"/>
<line clip-path="url(#clipPath2)" fill="none" x1="632" x2="632" y1="423" y2="421"/>
<line clip-path="url(#clipPath2)" fill="none" x1="651" x2="651" y1="16" y2="18"/>
<line clip-path="url(#clipPath2)" fill="none" x1="651" x2="651" y1="423" y2="421"/>
<line clip-path="url(#clipPath2)" fill="none" x1="670" x2="670" y1="16" y2="18"/>
<line clip-path="url(#clipPath2)" fill="none" x1="670" x2="670" y1="423" y2="421"/>
<line clip-path="url(#clipPath2)" fill="none" x1="689" x2="689" y1="16" y2="18"/>
<line clip-path="url(#clipPath2)" fill="none" x1="689" x2="689" y1="423" y2="421"/>
<line clip-path="url(#clipPath2)" fill="none" x1="708" x2="708" y1="14" y2="18"/>
<line clip-path="url(#clipPath2)" fill="none" x1="708" x2="708" y1="425" y2="421"/>
<text x="701" font-size="8" y="12" clip-path="url(#clipPath2)" stroke="none" xml:space="preserve">0.70</text>
<text x="701" font-size="8" y="434" clip-path="url(#clipPath2)" stroke="none" xml:space="preserve">0.70</text>
<line clip-path="url(#clipPath2)" fill="none" x1="727" x2="727" y1="16" y2="18"/>
<line clip-path="url(#clipPath2)" fill="none" x1="727" x2="727" y1="423" y2="421"/>
<line clip-path="url(#clipPath2)" fill="none" x1="747" x2="747" y1="16" y2="18"/>
<line clip-path="url(#clipPath2)" fill="none" x1="747" x2="747" y1="423" y2="421"/>
<line clip-path="url(#clipPath2)" fill="none" x1="766" x2="766" y1="16" y2="18"/>
<line clip-path="url(#clipPath2)" fill="none" x1="766" x2="766" y1="423" y2="421"/>
<line clip-path="url(#clipPath2)" fill="none" x1="785" x2="785" y1="16" y2="18"/>
<line clip-path="url(#clipPath2)" fill="none" x1="785" x2="785" y1="423" y2="421"/>
<line clip-path="url(#clipPath2)" fill="none" x1="804" x2="804" y1="14" y2="18"/>
<line clip-path="url(#clipPath2)" fill="none" x1="804" x2="804" y1="425" y2="421"/>
<text x="797" font-size="8" y="12" clip-path="url(#clipPath2)" stroke="none" xml:space="preserve">0.80</text>
<text x="797" font-size="8" y="434" clip-path="url(#clipPath2)" stroke="none" xml:space="preserve">0.80</text>
<line clip-path="url(#clipPath2)" fill="none" x1="823" x2="823" y1="16" y2="18"/>
<line clip-path="url(#clipPath2)" fill="none" x1="823" x2="823" y1="423" y2="421"/>
<line clip-path="url(#clipPath2)" fill="none" x1="842" x2="842" y1="16" y2="18"/>
<line clip-path="url(#clipPath2)" fill="none" x1="842" x2="842" y1="423" y2="421"/>
<line clip-path="url(#clipPath2)" fill="none" x1="861" x2="861" y1="16" y2="18"/>
<line clip-path="url(#clipPath2)" fill="none" x1="861" x2="861" y1="423" y2="421"/>
<line clip-path="url(#clipPath2)" fill="none" x1="880" x2="880" y1="16" y2="18"/>
<line clip-path="url(#clipPath2)" fill="none" x1="880" x2="880" y1="423" y2="421"/>
<line clip-path="url(#clipPath2)" fill="none" x1="899" x2="899" y1="14" y2="18"/>
<line clip-path="url(#clipPath2)" fill="none" x1="899" x2="899" y1="425" y2="421"/>
<text x="892" font-size="8" y="12" clip-path="url(#clipPath2)" stroke="none" xml:space="preserve">0.90</text>
<text x="892" font-size="8" y="434" clip-path="url(#clipPath2)" stroke="none" xml:space="preserve">0.90</text>
<line clip-path="url(#clipPath2)" fill="none" x1="919" x2="919" y1="16" y2="18"/>
<line clip-path="url(#clipPath2)" fill="none" x1="919" x2="919" y1="423" y2="421"/>
<line clip-path="url(#clipPath2)" fill="none" x1="938" x2="938" y1="16" y2="18"/>
<line clip-path="url(#clipPath2)" fill="none" x1="938" x2="938" y1="423" y2="421"/>
<line clip-path="url(#clipPath2)" fill="none" x1="957" x2="957" y1="16" y2="18"/>
<line clip-path="url(#clipPath2)" fill="none" x1="957" x2="957" y1="423" y2="421"/>
<line clip-path="url(#clipPath2)" fill="none" x1="976" x2="976" y1="16" y2="18"/>
<line clip-path="url(#clipPath2)" fill="none" x1="976" x2="976" y1="423" y2="421"/>
<line clip-path="url(#clipPath2)" fill="none" x1="995" x2="995" y1="14" y2="18"/>
<line clip-path="url(#clipPath2)" fill="none" x1="995" x2="995" y1="425" y2="421"/>
<text x="988" font-size="8" y="12" clip-path="url(#clipPath2)" stroke="none" xml:space="preserve">1.00</text>
<text x="988" font-size="8" y="434" clip-path="url(#clipPath2)" stroke="none" xml:space="preserve">1.00</text>
<line clip-path="url(#clipPath2)" fill="none" x1="38" x2="38" y1="20" y2="419"/>
<line clip-path="url(#clipPath2)" fill="none" x1="1010" x2="1010" y1="20" y2="419"/>
<line clip-path="url(#clipPath2)" fill="none" x1="34" x2="38" y1="419" y2="419"/>
<line clip-path="url(#clipPath2)" fill="none" x1="1014" x2="1010" y1="419" y2="419"/>
<text x="29" font-size="8" y="423" clip-path="url(#clipPath2)" stroke="none" xml:space="preserve">0</text>
<text x="1017" font-size="8" y="423" clip-path="url(#clipPath2)" stroke="none" xml:space="preserve">0</text>
<line clip-path="url(#clipPath2)" fill="none" x1="36" x2="38" y1="369" y2="369"/>
<line clip-path="url(#clipPath2)" fill="none" x1="1012" x2="1010" y1="369" y2="369"/>
<line clip-path="url(#clipPath2)" fill="none" x1="34" x2="38" y1="319" y2="319"/>
<line clip-path="url(#clipPath2)" fill="none" x1="1014" x2="1010" y1="319" y2="319"/>
<text x="13" font-size="8" y="323" clip-path="url(#clipPath2)" stroke="none" xml:space="preserve">20000</text>
<text x="1017" font-size="8" y="323" clip-path="url(#clipPath2)" stroke="none" xml:space="preserve">20000</text>
<line clip-path="url(#clipPath2)" fill="none" x1="36" x2="38" y1="269" y2="269"/>
<line clip-path="url(#clipPath2)" fill="none" x1="1012" x2="1010" y1="269" y2="269"/>
<line clip-path="url(#clipPath2)" fill="none" x1="34" x2="38" y1="219" y2="219"/>
<line clip-path="url(#clipPath2)" fill="none" x1="1014" x2="1010" y1="219" y2="219"/>
<text x="13" font-size="8" y="223" clip-path="url(#clipPath2)" stroke="none" xml:space="preserve">40000</text>
<text x="1017" font-size="8" y="223" clip-path="url(#clipPath2)" stroke="none" xml:space="preserve">40000</text>
<line clip-path="url(#clipPath2)" fill="none" x1="36" x2="38" y1="169" y2="169"/>
<line clip-path="url(#clipPath2)" fill="none" x1="1012" x2="1010" y1="169" y2="169"/>
<line clip-path="url(#clipPath2)" fill="none" x1="34" x2="38" y1="119" y2="119"/>
<line clip-path="url(#clipPath2)" fill="none" x1="1014" x2="1010" y1="119" y2="119"/>
<text x="13" font-size="8" y="123" clip-path="url(#clipPath2)" stroke="none" xml:space="preserve">60000</text>
<text x="1017" font-size="8" y="123" clip-path="url(#clipPath2)" stroke="none" xml:space="preserve">60000</text>
<line clip-path="url(#clipPath2)" fill="none" x1="36" x2="38" y1="69" y2="69"/>
<line clip-path="url(#clipPath2)" fill="none" x1="1012" x2="1010" y1="69" y2="69"/>
<line clip-path="url(#clipPath2)" fill="none" x1="34" x2="38" y1="20" y2="20"/>
<line clip-path="url(#clipPath2)" fill="none" x1="1014" x2="1010" y1="20" y2="20"/>
<text x="13" font-size="8" y="24" clip-path="url(#clipPath2)" stroke="none" xml:space="preserve">80000</text>
<text x="1017" font-size="8" y="24" clip-path="url(#clipPath2)" stroke="none" xml:space="preserve">80000</text>
</g>
</g>
</svg>
